<?xml version="1.0" encoding="UTF-8" standalone="no"?>
<!-- Generator: Adobe Illustrator 16.0.4, SVG Export Plug-In . SVG Version: 6.00 Build 0)  -->

<svg
   xmlns:dc="http://purl.org/dc/elements/1.1/"
   xmlns:cc="http://creativecommons.org/ns#"
   xmlns:rdf="http://www.w3.org/1999/02/22-rdf-syntax-ns#"
   xmlns:svg="http://www.w3.org/2000/svg"
   xmlns="http://www.w3.org/2000/svg"
   xmlns:sodipodi="http://sodipodi.sourceforge.net/DTD/sodipodi-0.dtd"
   xmlns:inkscape="http://www.inkscape.org/namespaces/inkscape"
   version="1.1"
   id="Layer_1"
   x="0px"
   y="0px"
   width="175"
   height="66.470001"
   viewBox="0 0 175 66.470002"
   enable-background="new 0 0 792 612"
   xml:space="preserve"
   inkscape:version="0.48.5 r10040"
   sodipodi:docname="escudo_footer_white.svg"><metadata
     id="metadata10"><rdf:RDF><cc:Work
         rdf:about=""><dc:format>image/svg+xml</dc:format><dc:type
           rdf:resource="http://purl.org/dc/dcmitype/StillImage" /></cc:Work></rdf:RDF></metadata><defs
     id="defs8" /><sodipodi:namedview
     pagecolor="#ffffff"
     bordercolor="#666666"
     borderopacity="1"
     objecttolerance="10"
     gridtolerance="10"
     guidetolerance="10"
     inkscape:pageopacity="0"
     inkscape:pageshadow="2"
     inkscape:window-width="1182"
     inkscape:window-height="604"
     id="namedview6"
     showgrid="false"
     inkscape:zoom="4.5714286"
     inkscape:cx="87.5"
     inkscape:cy="33.235001"
     inkscape:window-x="0"
     inkscape:window-y="271"
     inkscape:window-maximized="0"
     inkscape:current-layer="Layer_1" /><g
     id="Layer_x0020_1"
     transform="matrix(0.22152684,0,0,0.22152684,-0.36995025,-29.069312)"><path
       d="m 228.366,195.022 c 31.047,24.433 50.865,61.527 50.865,103.06 0,73.558 -62.146,133.21 -138.781,133.21 -76.634,0 -138.78,-59.652 -138.78,-133.21 0,-42.706 20.955,-80.722 53.525,-105.099 v -61.776 h 173.171 v 63.815 z m -191.267,56.699 -9.604,-5.322 c -0.844,-0.467 -1.472,-0.901 -1.881,-1.299 -0.407,-0.4 -0.735,-0.905 -0.988,-1.52 -0.733,-1.704 -0.517,-3.605 0.646,-5.704 1.149,-2.071 2.698,-3.298 4.647,-3.685 1.295,-0.275 2.613,-0.04 3.955,0.703 l 9.6,5.322 -2.267,4.091 -9.447,-5.237 c -1.021,-0.566 -1.937,-0.771 -2.746,-0.622 -0.809,0.153 -1.442,0.645 -1.902,1.476 -0.552,0.992 -0.59,1.963 -0.126,2.907 0.305,0.587 0.901,1.127 1.791,1.62 l 9.45,5.237 -1.128,2.033 0,0 z m -16.515,-3.517 15.351,6.516 -1.962,4.628 -10.327,1.865 8.08,3.43 -0.909,2.141 -15.354,-6.516 1.025,-2.417 14.765,-2.589 -11.58,-4.917 0.911,-2.141 0,0 z m -6.271,16.83 16.183,4.036 -1.131,4.536 -16.184,-4.035 1.132,-4.537 0,0 z m -3.684,14.715 18.167,-4.77 -0.702,5.003 -9.091,2.333 8.104,4.7 -0.308,2.176 -16.17,-9.442 0,0 z m -0.491,10.584 16.668,0.583 -0.368,10.524 -2.25,-0.081 0.205,-5.846 -4.873,-0.171 -0.193,5.548 -2.251,-0.077 0.195,-5.549 -5.05,-0.178 -0.211,6.046 -2.249,-0.075 0.377,-10.724 0,0 z m -0.058,14.998 16.555,-2.034 0.871,7.102 c 0.266,2.147 0.029,3.908 -0.711,5.276 -0.74,1.369 -1.878,2.145 -3.416,2.33 -2.234,0.275 -3.852,-0.852 -4.851,-3.385 l -6.708,4.879 -0.636,-5.186 7.82,-5.042 c 0,0.268 0.017,0.543 0.051,0.825 0.299,2.436 1.423,3.529 3.376,3.29 2.134,-0.266 3.046,-1.667 2.734,-4.214 l -0.12,-0.968 -14.397,1.768 -0.568,-4.641 0,0 z m 5.282,16.433 1.805,1.812 c -1.382,1.211 -1.933,2.41 -1.66,3.596 0.131,0.569 0.427,1.004 0.893,1.309 0.463,0.302 0.972,0.394 1.522,0.263 0.617,-0.142 1.085,-0.531 1.399,-1.169 0.158,-0.291 0.332,-0.938 0.525,-1.942 0.398,-1.993 0.895,-3.352 1.5,-4.068 0.67,-0.809 1.53,-1.333 2.588,-1.575 1.512,-0.347 2.9,-0.096 4.163,0.748 1.265,0.845 2.087,2.082 2.46,3.705 0.53,2.292 -0.104,4.291 -1.897,6.007 l -1.719,-1.556 c 1.379,-1.053 1.927,-2.212 1.634,-3.483 -0.131,-0.564 -0.42,-1.004 -0.868,-1.309 -0.449,-0.308 -0.934,-0.402 -1.452,-0.281 -0.617,0.142 -1.084,0.531 -1.398,1.168 -0.139,0.288 -0.301,0.954 -0.491,1.987 -0.264,1.375 -0.617,2.555 -1.059,3.529 -0.549,1.186 -1.527,1.944 -2.94,2.268 -1.608,0.374 -3.055,0.112 -4.339,-0.781 -1.283,-0.89 -2.131,-2.222 -2.54,-3.993 -0.28,-1.219 -0.273,-2.318 0.021,-3.301 0.297,-0.991 0.914,-1.966 1.853,-2.934 z m 1.514,16.005 15.771,-5.432 1.524,4.423 -15.772,5.432 -1.523,-4.423 0,0 z m 3.05,8.906 14.728,-7.83 3.028,5.697 c 0.563,1.061 0.958,2.174 1.181,3.338 0.224,1.166 0.256,2.243 0.103,3.231 -0.46,2.757 -1.87,4.76 -4.223,6.015 -1.251,0.664 -2.578,0.982 -3.981,0.954 -1.402,-0.028 -2.729,-0.399 -3.977,-1.113 -1.333,-0.765 -2.613,-2.304 -3.842,-4.614 l -3.017,-5.678 0,0 z m 4.118,3.108 0.412,0.775 c 0.75,1.414 1.703,2.321 2.862,2.723 1.694,0.592 3.489,0.385 5.388,-0.628 0.956,-0.508 1.737,-1.152 2.341,-1.936 0.602,-0.785 0.958,-1.619 1.071,-2.511 0.146,-1.041 -0.095,-2.149 -0.722,-3.329 l -0.468,-0.884 -10.884,5.79 0,0 z m 4.735,13.181 17.023,-4.948 2.761,3.804 -9.906,14.743 -2.954,-4.068 2.931,-4.386 -3.38,-4.652 -5.064,1.454 -1.411,-1.947 0,0 z m 8.595,-0.124 2.5,3.441 3.538,-5.261 -6.038,1.82 z m 3.662,16.101 12,-11.586 4.481,4.643 c 0.834,0.859 1.519,1.823 2.055,2.884 0.535,1.058 0.866,2.081 0.99,3.077 0.316,2.776 -0.486,5.087 -2.403,6.939 -1.02,0.99 -2.206,1.657 -3.564,2.017 -1.356,0.36 -2.731,0.367 -4.13,0.025 -1.49,-0.368 -3.144,-1.492 -4.962,-3.373 l -4.467,-4.626 0,0 z m 4.814,1.853 0.607,0.628 c 1.113,1.152 2.28,1.764 3.506,1.833 1.791,0.102 3.457,-0.597 5.005,-2.089 0.781,-0.753 1.35,-1.591 1.715,-2.508 0.363,-0.92 0.478,-1.823 0.339,-2.71 -0.146,-1.041 -0.682,-2.039 -1.608,-2.999 l -0.697,-0.721 -8.867,8.566 z m 13.163,14.974 14.484,-10.222 3.849,2.698 -4.568,17.161 -4.118,-2.882 1.346,-5.1 -4.71,-3.301 -4.317,3.021 -1.966,-1.375 z m 8.088,-2.914 3.48,2.436 1.632,-6.122 -5.112,3.686 0,0 z m 28.046,4.807 -4.983,9.781 c -0.439,0.862 -0.852,1.504 -1.234,1.926 -0.383,0.422 -0.877,0.77 -1.483,1.043 -1.677,0.79 -3.584,0.645 -5.724,-0.446 -2.109,-1.077 -3.391,-2.584 -3.846,-4.514 -0.318,-1.284 -0.129,-2.612 0.568,-3.978 l 4.983,-9.784 4.167,2.126 -4.903,9.624 c -0.531,1.041 -0.705,1.961 -0.524,2.764 0.18,0.806 0.694,1.421 1.54,1.854 1.01,0.514 1.981,0.521 2.907,0.019 0.578,-0.32 1.095,-0.935 1.558,-1.842 l 4.904,-9.628 2.07,1.055 0,0 z m 0.036,17.708 4.697,-13.641 -4.421,-1.523 0.733,-2.126 13.241,4.56 -0.733,2.125 -4.396,-1.514 -4.698,13.646 -4.423,-1.527 0,0 z m 12.646,-4.569 c 0.412,-2.351 1.643,-4.22 3.692,-5.611 2.046,-1.393 4.285,-1.873 6.714,-1.443 2.497,0.441 4.446,1.646 5.85,3.624 1.404,1.97 1.892,4.183 1.459,6.628 -0.429,2.433 -1.624,4.303 -3.581,5.614 -1.958,1.316 -4.2,1.749 -6.73,1.303 -2.592,-0.458 -4.586,-1.634 -5.978,-3.527 -1.39,-1.901 -1.868,-4.094 -1.426,-6.588 z m 7.833,8.132 c 0.672,0.12 1.303,0.039 1.896,-0.249 0.593,-0.283 1.086,-0.741 1.486,-1.361 0.756,-1.138 1.279,-2.51 1.564,-4.119 0.292,-1.655 0.292,-3.155 0.004,-4.49 -0.174,-0.845 -0.515,-1.532 -1.019,-2.073 -0.508,-0.54 -1.13,-0.874 -1.865,-1.002 -1.12,-0.2 -2.083,0.18 -2.895,1.14 -1.015,1.143 -1.699,2.723 -2.056,4.742 -0.37,2.087 -0.294,3.784 0.216,5.101 0.514,1.322 1.401,2.09 2.666,2.312 h 0.003 z m 12.47,3.747 0.583,-16.673 5.021,0.178 5.444,8.977 0.304,-8.773 2.324,0.077 -0.583,16.67 -2.622,-0.092 -7.709,-12.852 -0.438,12.571 -2.324,-0.083 0,0 z m 16.074,-7.363 c -0.292,-2.366 0.337,-4.517 1.892,-6.445 1.551,-1.928 3.552,-3.041 6,-3.343 2.514,-0.307 4.734,0.276 6.651,1.752 1.923,1.476 3.033,3.447 3.337,5.915 0.301,2.449 -0.294,4.59 -1.781,6.416 -1.49,1.83 -3.509,2.9 -6.059,3.216 -2.613,0.32 -4.865,-0.223 -6.75,-1.63 -1.883,-1.408 -2.982,-3.366 -3.29,-5.881 l 0,0 z m 9.869,5.488 c 0.678,-0.083 1.257,-0.348 1.741,-0.792 0.485,-0.445 0.822,-1.026 1.021,-1.739 0.394,-1.307 0.491,-2.772 0.292,-4.393 -0.204,-1.674 -0.642,-3.106 -1.306,-4.298 -0.416,-0.761 -0.939,-1.316 -1.582,-1.685 -0.642,-0.365 -1.335,-0.506 -2.079,-0.411 -1.125,0.138 -1.938,0.782 -2.435,1.935 -0.635,1.389 -0.828,3.101 -0.577,5.136 0.256,2.103 0.826,3.708 1.699,4.816 0.876,1.11 1.953,1.588 3.226,1.431 l 0,0 z m 13.078,0.157 -4.599,-16.034 4.423,-1.268 6.01,7.539 1.084,-9.571 4.374,-1.258 4.596,16.035 -4.496,1.289 -2.984,-10.407 -1.339,11.651 -0.458,0.128 -7.379,-9.226 3.005,10.479 -2.237,0.643 0,0 z m 18.834,-5.517 -1.3,-17.678 4.295,-1.914 12.357,12.757 -4.592,2.047 -3.683,-3.785 -5.251,2.34 0.367,5.258 -2.193,0.975 z m 1.666,-8.431 3.882,-1.732 -4.41,-4.551 0.528,6.283 z m 22.087,-2.754 -9.565,-13.661 5.284,-3.701 c 0.981,-0.688 2.04,-1.216 3.169,-1.579 1.129,-0.363 2.196,-0.53 3.195,-0.494 2.792,0.12 4.953,1.272 6.481,3.457 0.815,1.161 1.289,2.438 1.434,3.834 0.145,1.4 -0.065,2.759 -0.622,4.084 -0.596,1.415 -1.968,2.874 -4.108,4.374 l -5.268,3.686 0,0 z m 2.582,-4.466 0.717,-0.501 c 1.313,-0.919 2.099,-1.974 2.357,-3.175 0.379,-1.751 -0.046,-3.507 -1.28,-5.271 -0.622,-0.887 -1.358,-1.581 -2.209,-2.086 -0.848,-0.503 -1.722,-0.759 -2.622,-0.759 -1.051,-0.021 -2.121,0.354 -3.211,1.118 l -0.822,0.578 7.07,10.096 0,0 z m 13.95,-7.45 -11.377,-12.196 7.7,-7.184 1.536,1.649 -4.279,3.987 3.326,3.569 4.06,-3.788 1.536,1.646 -4.064,3.783 3.449,3.697 4.425,-4.129 1.536,1.65 -7.848,7.316 0,0 z m 13.466,-34.628 0.011,2.544 c -1.293,-0.178 -2.366,-0.134 -3.218,0.132 -0.854,0.27 -1.553,0.775 -2.092,1.515 -0.802,1.105 -0.947,2.336 -0.437,3.686 0.516,1.349 1.622,2.646 3.321,3.876 2.006,1.459 3.865,1.997 5.571,1.61 0.979,-0.216 1.765,-0.729 2.351,-1.538 0.805,-1.107 1.021,-2.401 0.657,-3.883 -0.129,-0.527 -0.375,-1.197 -0.732,-2.013 l 2.129,-0.714 c 0.717,1.365 1.015,2.778 0.893,4.235 -0.121,1.457 -0.667,2.854 -1.636,4.188 -1.501,2.065 -3.426,3.307 -5.778,3.719 -2.351,0.413 -4.525,-0.105 -6.521,-1.551 -1.982,-1.445 -3.147,-3.367 -3.49,-5.77 -0.348,-2.403 0.223,-4.624 1.703,-6.662 1.828,-2.524 4.254,-3.646 7.268,-3.374 l 0,0 z m 12.939,4.818 -14.729,-7.831 2.197,-4.13 6.292,3.345 2.289,-4.305 -6.292,-3.345 2.197,-4.13 14.728,7.831 -2.197,4.131 -6.448,-3.43 -2.289,4.308 6.449,3.427 -2.197,4.129 0,0 z m 8.49,-17.072 -15.463,-6.249 1.75,-4.334 15.465,6.245 -1.752,4.338 0,0 z m 3.687,-9.055 -16.034,-4.597 1.289,-4.493 6.852,1.965 1.342,-4.69 -6.848,-1.962 1.287,-4.498 16.034,4.598 -1.289,4.496 -7.019,-2.011 -1.346,4.687 7.022,2.012 -1.29,4.493 0,0 z m -10.298,-33.639 10.898,1.339 c 0.958,0.117 1.703,0.284 2.23,0.5 0.525,0.214 1.02,0.563 1.485,1.038 1.32,1.303 1.83,3.15 1.539,5.533 -0.292,2.352 -1.267,4.065 -2.926,5.156 -1.101,0.736 -2.411,1.016 -3.932,0.828 l -10.899,-1.336 0.57,-4.643 10.725,1.316 c 1.158,0.142 2.082,-0.011 2.776,-0.455 0.694,-0.441 1.096,-1.136 1.215,-2.078 0.136,-1.127 -0.191,-2.045 -0.978,-2.743 -0.5,-0.43 -1.256,-0.708 -2.264,-0.831 l -10.724,-1.317 0.285,-2.307 0,0 z m 16.584,-1.255 -16.883,-5.414 -0.16,-4.698 16.458,-6.681 0.172,5.025 -4.884,1.998 0.203,5.746 5.008,1.63 0.086,2.394 0,0 z m -7.196,-4.701 -0.15,-4.248 -5.873,2.382 6.023,1.866 z m 6.259,-15.201 -16.375,3.181 -0.889,-4.587 6.995,-1.362 -0.932,-4.785 -6.993,1.358 -0.893,-4.591 16.374,-3.179 0.89,4.589 -7.169,1.392 0.933,4.788 7.167,-1.395 0.892,4.591 z m -24.267,-25.348 10.315,-3.755 c 0.907,-0.331 1.647,-0.519 2.216,-0.567 0.567,-0.047 1.165,0.038 1.794,0.253 1.765,0.562 3.061,1.971 3.883,4.229 0.808,2.225 0.717,4.2 -0.269,5.923 -0.641,1.157 -1.686,1.997 -3.126,2.521 l -10.313,3.757 -1.601,-4.395 10.15,-3.695 c 1.098,-0.4 1.853,-0.957 2.27,-1.665 0.415,-0.71 0.461,-1.511 0.136,-2.404 -0.39,-1.067 -1.092,-1.732 -2.111,-2 -0.642,-0.155 -1.441,-0.061 -2.396,0.288 l -10.152,3.695 -0.796,-2.185 0,0 z m 14.575,-8.787 -17.499,2.839 -2.278,-4.112 11.63,-13.423 2.437,4.396 -3.449,3.996 2.79,5.03 5.205,-0.826 1.164,2.1 z m -8.544,-0.922 -2.063,-3.717 -4.151,4.787 6.214,-1.07 z M 65.408,146.464 h 11.268 v 3.159 H 66.93 v 4.073 h -1.521 v -7.232 z m 0.271,199.292 v -11.271 h 3.159 v 9.749 h 4.073 v 1.522 h -7.232 z m 7.502,-5.608 c 0,-1.61 0.599,-2.999 1.8,-4.165 1.199,-1.164 2.632,-1.747 4.299,-1.747 1.712,0 3.151,0.569 4.316,1.722 1.166,1.146 1.75,2.559 1.75,4.24 0,1.666 -0.575,3.053 -1.725,4.152 -1.149,1.107 -2.591,1.658 -4.324,1.658 -1.781,0 -3.244,-0.551 -4.394,-1.645 -1.147,-1.097 -1.722,-2.507 -1.722,-4.215 z m 6.168,4.491 c 0.461,0 0.872,-0.127 1.232,-0.386 0.362,-0.263 0.637,-0.622 0.828,-1.083 0.371,-0.842 0.558,-1.818 0.558,-2.921 0,-1.139 -0.175,-2.137 -0.524,-2.991 -0.214,-0.541 -0.521,-0.96 -0.921,-1.258 -0.4,-0.297 -0.853,-0.449 -1.361,-0.449 -0.766,0 -1.361,0.368 -1.791,1.099 -0.542,0.88 -0.812,2.013 -0.812,3.394 0,1.436 0.249,2.558 0.743,3.372 0.499,0.817 1.18,1.223 2.048,1.223 l 0,0 z m 18.433,-3.902 v 3.296 c -1.859,1.293 -3.669,1.943 -5.425,1.943 -1.688,0 -3.135,-0.487 -4.341,-1.455 -1.263,-1.033 -1.892,-2.489 -1.892,-4.356 0,-1.848 0.658,-3.343 1.974,-4.479 1.127,-0.992 2.485,-1.486 4.074,-1.486 1.992,0 3.628,0.852 4.898,2.55 l -1.552,1.166 c -0.429,-0.812 -0.888,-1.405 -1.379,-1.782 -0.489,-0.379 -1.051,-0.564 -1.68,-0.564 -0.935,0 -1.653,0.396 -2.154,1.187 -0.502,0.8 -0.751,1.932 -0.751,3.406 0,1.41 0.237,2.48 0.708,3.21 0.225,0.352 0.545,0.629 0.962,0.836 0.418,0.209 0.875,0.313 1.369,0.313 0.868,0 1.583,-0.258 2.148,-0.775 v -3.009 h 3.041 l 0,-10e-4 z m 1.467,5.019 v -11.268 h 4.832 c 1.467,0 2.626,0.304 3.48,0.914 0.858,0.604 1.286,1.434 1.286,2.48 0,1.519 -0.89,2.515 -2.671,2.974 l 2.721,4.899 h -3.528 l -2.74,-5.66 c 0.18,0.022 0.366,0.033 0.559,0.033 1.654,0 2.482,-0.661 2.482,-1.994 0,-1.451 -0.864,-2.177 -2.599,-2.177 h -0.661 v 9.798 h -3.161 l 0,10e-4 z m 9.952,0 4.052,-11.268 h 3.179 l 4.122,11.268 h -3.397 l -1.231,-3.342 h -3.885 l -1.218,3.342 h -1.622 z m 3.344,-4.746 h 2.871 l -1.47,-4.024 -1.401,4.024 z m 8.905,4.746 v -11.268 h 4.829 c 1.466,0 2.625,0.304 3.479,0.914 0.858,0.604 1.287,1.434 1.287,2.48 0,1.519 -0.891,2.515 -2.669,2.974 l 2.718,4.899 h -3.529 l -2.737,-5.66 c 0.18,0.022 0.367,0.033 0.557,0.033 1.656,0 2.485,-0.661 2.485,-1.994 0,-1.451 -0.868,-2.177 -2.603,-2.177 h -0.658 v 9.798 h -3.159 z m 15.305,0 v -11.268 h 5.018 c 1.307,0 2.34,0.314 3.101,0.945 0.759,0.63 1.143,1.486 1.143,2.566 0,1.172 -0.465,2.034 -1.388,2.587 -0.609,0.373 -1.47,0.558 -2.587,0.558 h -2.127 v 4.611 h -3.16 l 0,10e-4 z m 3.159,-6.082 h 0.845 c 0.418,0 0.71,-0.017 0.876,-0.05 0.171,-0.033 0.348,-0.117 0.524,-0.255 0.452,-0.314 0.678,-0.822 0.678,-1.519 0,-0.578 -0.19,-1.036 -0.567,-1.379 -0.377,-0.343 -0.88,-0.514 -1.512,-0.514 h -0.845 v 3.717 z m 6.2,6.082 4.056,-11.268 h 3.175 l 4.122,11.268 h -3.396 l -1.233,-3.342 h -3.885 l -1.219,3.342 h -1.62 l 0,0 z m 3.345,-4.746 h 2.875 l -1.474,-4.024 -1.401,4.024 0,0 z m 8.905,4.746 v -11.268 h 4.832 c 1.463,0 2.625,0.304 3.479,0.914 0.854,0.604 1.287,1.434 1.287,2.48 0,1.519 -0.894,2.515 -2.671,2.974 l 2.72,4.899 h -3.532 l -2.736,-5.66 c 0.18,0.022 0.366,0.033 0.557,0.033 1.656,0 2.484,-0.661 2.484,-1.994 0,-1.451 -0.867,-2.177 -2.602,-2.177 h -0.658 v 9.798 h -3.16 z m 9.952,0 4.052,-11.268 h 3.175 l 4.125,11.268 h -3.398 l -1.234,-3.342 h -3.882 l -1.218,3.342 h -1.62 l 0,0 z m 3.342,-4.746 h 2.873 l -1.469,-4.024 -1.404,4.024 0,0 z m 13.128,4.746 v -11.268 h 4.36 c 0.809,0 1.597,0.117 2.363,0.354 0.766,0.239 1.421,0.561 1.961,0.965 1.5,1.146 2.246,2.623 2.246,4.428 0,0.954 -0.23,1.845 -0.69,2.677 -0.462,0.825 -1.107,1.5 -1.928,2.017 -0.877,0.554 -2.204,0.828 -3.972,0.828 h -4.34 z m 3.158,-1.47 h 0.593 c 1.08,0 1.925,-0.281 2.533,-0.845 0.891,-0.823 1.335,-1.959 1.335,-3.41 0,-0.734 -0.137,-1.405 -0.416,-2.011 -0.275,-0.609 -0.662,-1.091 -1.155,-1.44 -0.576,-0.413 -1.313,-0.622 -2.214,-0.622 h -0.677 v 8.328 l 10e-4,0 z m 8.044,1.47 4.052,-11.268 h 3.179 l 4.121,11.268 h -3.395 l -1.234,-3.342 h -3.886 l -1.218,3.342 h -1.619 l 0,0 z m 3.345,-4.746 h 2.875 l -1.47,-4.024 -1.405,4.024 z m 8.904,4.746 v -11.268 h 4.832 c 1.465,0 2.623,0.304 3.481,0.914 0.855,0.604 1.282,1.434 1.282,2.48 0,1.519 -0.889,2.515 -2.671,2.974 l 2.722,4.899 h -3.53 l -2.737,-5.66 c 0.18,0.022 0.367,0.033 0.557,0.033 1.656,0 2.485,-0.661 2.485,-1.994 0,-1.451 -0.869,-2.177 -2.603,-2.177 h -0.658 v 9.798 h -3.16 l 0,10e-4 z M 76.676,163.477 H 69.26 c -0.653,0 -1.165,-0.05 -1.536,-0.151 -0.374,-0.101 -0.732,-0.293 -1.083,-0.574 -0.992,-0.766 -1.486,-1.958 -1.486,-3.582 0,-1.599 0.511,-2.831 1.537,-3.699 0.677,-0.586 1.532,-0.879 2.567,-0.879 h 7.416 v 3.161 H 69.38 c -0.792,0 -1.399,0.176 -1.827,0.53 -0.428,0.355 -0.642,0.854 -0.642,1.498 0,0.764 0.295,1.349 0.879,1.753 0.37,0.25 0.9,0.375 1.589,0.375 h 7.296 v 1.568 z m -2.382,12.215 -1.014,-1.385 c 0.777,-0.416 1.347,-0.867 1.707,-1.351 0.36,-0.486 0.54,-1.038 0.54,-1.656 0,-0.924 -0.406,-1.652 -1.224,-2.189 -0.817,-0.537 -1.935,-0.8 -3.354,-0.8 -1.676,0 -2.905,0.443 -3.685,1.333 -0.449,0.508 -0.674,1.095 -0.674,1.774 0,0.924 0.396,1.718 1.183,2.381 0.28,0.237 0.681,0.507 1.2,0.812 l -0.879,1.233 c -0.935,-0.463 -1.658,-1.115 -2.17,-1.961 -0.514,-0.844 -0.769,-1.823 -0.769,-2.938 0,-1.725 0.562,-3.165 1.681,-4.326 1.119,-1.162 2.514,-1.74 4.182,-1.74 1.653,0 3.055,0.588 4.196,1.767 1.144,1.175 1.717,2.616 1.717,4.317 0.002,2.106 -0.877,3.681 -2.637,4.729 l 0,0 z m -8.886,1.252 h 11.268 v 3.158 h -4.814 v 3.295 h 4.814 v 3.159 H 65.408 v -3.159 h 4.933 v -3.295 h -4.933 v -3.158 z m 0,10.51 11.268,4.053 v 3.177 l -11.268,4.121 v -3.395 l 3.344,-1.234 v -3.884 l -3.344,-1.218 v -1.62 l 0,0 z m 4.748,3.343 v 2.873 l 4.022,-1.47 -4.022,-1.403 z m -4.748,8.905 h 11.268 v 4.83 c 0,1.466 -0.302,2.625 -0.913,3.482 -0.607,0.854 -1.434,1.283 -2.483,1.283 -1.517,0 -2.513,-0.889 -2.973,-2.67 l -4.9,2.722 v -3.531 l 5.661,-2.737 c -0.024,0.178 -0.035,0.364 -0.035,0.559 0,1.654 0.665,2.48 1.994,2.48 1.452,0 2.179,-0.869 2.179,-2.601 v -0.66 h -9.799 v -3.157 z m 0,15.306 h 11.268 v 5.015 c 0,1.31 -0.315,2.342 -0.944,3.101 -0.63,0.763 -1.489,1.143 -2.569,1.143 -1.172,0 -2.031,-0.462 -2.584,-1.386 -0.372,-0.61 -0.558,-1.468 -0.558,-2.585 v -2.13 h -4.612 v -3.158 z m 6.083,3.157 v 0.846 c 0,0.417 0.018,0.71 0.05,0.877 0.034,0.17 0.121,0.346 0.252,0.525 0.316,0.448 0.824,0.676 1.522,0.676 0.573,0 1.032,-0.188 1.376,-0.567 0.346,-0.376 0.517,-0.879 0.517,-1.512 v -0.846 h -3.717 z m -6.083,6.202 11.268,4.055 v 3.174 l -11.268,4.124 v -3.395 l 3.344,-1.234 v -3.888 l -3.344,-1.215 v -1.621 z m 4.748,3.345 v 2.871 l 4.022,-1.468 -4.022,-1.403 z m -4.748,8.901 h 11.268 v 4.834 c 0,1.463 -0.302,2.625 -0.913,3.481 -0.607,0.856 -1.434,1.284 -2.483,1.284 -1.517,0 -2.513,-0.89 -2.973,-2.671 l -4.9,2.721 v -3.529 l 5.661,-2.736 c -0.024,0.179 -0.035,0.366 -0.035,0.557 0,1.658 0.665,2.483 1.994,2.483 1.452,0 2.179,-0.865 2.179,-2.602 v -0.661 h -9.799 v -3.161 l 0.001,0 z m 0,9.952 11.268,4.055 v 3.176 l -11.268,4.122 v -3.395 l 3.344,-1.232 v -3.886 l -3.344,-1.217 v -1.623 z m 4.748,3.347 v 2.873 l 4.022,-1.47 -4.022,-1.403 z m -4.748,13.126 h 11.268 v 3.159 H 66.93 v 4.07 h -1.521 v -7.229 l -0.001,0 z m 5.611,7.502 c 1.612,0 2.997,0.6 4.164,1.799 1.164,1.199 1.75,2.631 1.75,4.298 0,1.713 -0.576,3.152 -1.725,4.319 -1.149,1.165 -2.562,1.744 -4.239,1.744 -1.668,0 -3.052,-0.57 -4.158,-1.718 -1.104,-1.151 -1.655,-2.592 -1.655,-4.325 0,-1.782 0.548,-3.243 1.645,-4.395 1.1,-1.147 2.504,-1.722 4.218,-1.722 l 0,0 z m -4.495,6.166 c 0,0.464 0.129,0.873 0.388,1.234 0.259,0.36 0.62,0.638 1.079,0.829 0.848,0.371 1.822,0.557 2.927,0.557 1.136,0 2.133,-0.176 2.99,-0.526 0.541,-0.212 0.96,-0.518 1.257,-0.92 0.3,-0.402 0.449,-0.855 0.449,-1.36 0,-0.766 -0.367,-1.361 -1.098,-1.792 -0.879,-0.539 -2.01,-0.812 -3.396,-0.812 -1.432,0 -2.555,0.252 -3.372,0.746 -0.816,0.496 -1.224,1.175 -1.224,2.044 l 0,0 z m 3.902,18.434 H 67.13 c -1.294,-1.859 -1.939,-3.671 -1.939,-5.425 0,-1.689 0.482,-3.136 1.451,-4.341 1.038,-1.263 2.49,-1.892 4.359,-1.892 1.846,0 3.339,0.655 4.477,1.977 0.992,1.124 1.486,2.482 1.486,4.072 0,1.992 -0.85,3.624 -2.548,4.897 l -1.168,-1.55 c 0.812,-0.433 1.404,-0.891 1.783,-1.382 0.377,-0.491 0.568,-1.048 0.568,-1.678 0,-0.935 -0.398,-1.655 -1.192,-2.158 -0.794,-0.498 -1.928,-0.747 -3.404,-0.747 -1.41,0 -2.478,0.236 -3.21,0.707 -0.349,0.222 -0.63,0.55 -0.836,0.963 -0.208,0.416 -0.313,0.877 -0.313,1.369 0,0.866 0.259,1.583 0.776,2.147 h 3.009 v 3.041 l -0.003,0 z m -5.018,1.47 h 11.268 v 4.83 c 0,1.464 -0.302,2.627 -0.913,3.478 -0.607,0.856 -1.434,1.282 -2.483,1.282 -1.519,0 -2.513,-0.883 -2.973,-2.663 l -4.9,2.721 v -3.533 l 5.661,-2.737 c -0.024,0.176 -0.035,0.367 -0.035,0.556 0,1.657 0.664,2.482 1.994,2.482 1.452,0 2.179,-0.865 2.179,-2.601 v -0.661 h -9.799 v -3.154 z m 0,9.947 11.268,4.057 v 3.177 l -11.268,4.119 v -3.394 l 3.344,-1.23 v -3.89 l -3.344,-1.217 v -1.622 l 0,0 z m 4.748,3.346 v 2.871 l 4.022,-1.467 -4.022,-1.404 0,0 z m -4.748,8.905 h 11.268 v 4.831 c 0,1.464 -0.302,2.623 -0.913,3.48 -0.607,0.858 -1.434,1.283 -2.483,1.283 -1.519,0 -2.513,-0.89 -2.973,-2.672 l -4.9,2.725 v -3.532 l 5.661,-2.74 c -0.024,0.185 -0.035,0.37 -0.035,0.56 0,1.656 0.664,2.485 1.994,2.485 1.452,0 2.179,-0.868 2.179,-2.603 v -0.658 h -9.799 v -3.159 z m 296.646,68.638 h 409.285 v 3.636 H 362.054 v -3.636 z m 30.966,-38.341 c -0.774,3.442 -1.525,7.097 -2.259,10.965 -1.224,0 -3.45,0.292 -6.674,0.873 -4.129,0.751 -7.183,1.129 -9.16,1.129 -4.901,0 -9.202,-0.965 -12.902,-2.904 -3.694,-1.936 -6.576,-4.709 -8.643,-8.309 -2.064,-3.602 -3.097,-7.601 -3.097,-12.008 0,-4.345 1.098,-8.354 3.281,-12.02 2.184,-3.667 5.182,-6.516 9.008,-8.558 3.828,-2.043 8.139,-3.064 12.932,-3.064 2.023,0 4.73,0.216 8.129,0.645 2.644,0.345 4.568,0.517 5.775,0.517 0.278,3.009 0.772,6.663 1.482,10.963 0,0.349 -0.343,0.519 -1.031,0.519 -0.432,0 -0.688,-0.17 -0.777,-0.519 -0.772,-2.922 -2.438,-5.327 -4.998,-7.221 -2.557,-1.892 -5.502,-2.841 -8.835,-2.841 -5.055,0 -9.29,2.088 -12.718,6.259 -3.432,4.171 -5.149,9.276 -5.149,15.32 0,5.866 1.699,10.855 5.092,14.974 3.398,4.118 7.55,6.181 12.451,6.181 7.676,0 13.116,-3.633 16.318,-10.9 0.152,-0.341 0.443,-0.515 0.871,-0.515 0.603,0 0.904,0.174 0.904,0.514 l 0,0 z m 55.734,11.032 c 0,0.603 -0.175,0.904 -0.519,0.904 -1.461,0 -3.195,-0.065 -5.191,-0.195 -1.892,-0.127 -3.493,-0.192 -4.806,-0.192 -1.313,0 -2.828,0.065 -4.548,0.192 -1.806,0.13 -3.43,0.195 -4.87,0.195 -0.345,0 -0.517,-0.302 -0.517,-0.904 0,-0.536 0.183,-0.828 0.55,-0.87 1.806,-0.216 3.148,-0.518 4.028,-0.891 0.885,-0.38 1.454,-0.871 1.699,-1.486 0.249,-0.611 0.366,-1.634 0.366,-3.075 V 339.431 H 410.34 v 14.384 c 0,1.441 0.128,2.464 0.376,3.075 0.248,0.615 0.805,1.106 1.686,1.486 0.884,0.373 2.24,0.675 4.067,0.891 0.342,0.042 0.513,0.334 0.513,0.87 0,0.603 -0.171,0.904 -0.513,0.904 -1.444,0 -3.064,-0.065 -4.873,-0.195 -1.718,-0.127 -3.233,-0.192 -4.548,-0.192 -1.311,0 -2.926,0.065 -4.837,0.192 -2,0.13 -3.719,0.195 -5.159,0.195 -0.343,0 -0.517,-0.302 -0.517,-0.904 0,-0.536 0.174,-0.828 0.517,-0.87 2.599,-0.302 4.374,-0.787 5.31,-1.451 0.938,-0.667 1.397,-2 1.397,-4.001 v -30.358 c 0,-1.507 -0.183,-2.56 -0.559,-3.173 -0.377,-0.611 -1.042,-1.093 -1.99,-1.453 -0.944,-0.353 -2.331,-0.642 -4.158,-0.857 -0.343,0 -0.517,-0.301 -0.517,-0.903 0,-0.589 0.174,-0.891 0.517,-0.891 1.44,0 3.159,0.062 5.159,0.192 1.911,0.129 3.526,0.195 4.837,0.195 1.314,0 2.83,-0.066 4.548,-0.195 1.809,-0.131 3.429,-0.192 4.873,-0.192 0.342,0 0.513,0.302 0.513,0.891 0,0.603 -0.171,0.903 -0.513,0.903 -1.681,0.192 -2.947,0.45 -3.809,0.773 -0.86,0.32 -1.464,0.765 -1.804,1.312 -0.344,0.547 -0.517,1.68 -0.517,3.398 v 13.91 h 24.606 v -13.91 c 0,-1.44 -0.117,-2.472 -0.366,-3.098 -0.245,-0.622 -0.806,-1.116 -1.675,-1.492 -0.872,-0.377 -2.236,-0.678 -4.086,-0.894 -0.345,0 -0.517,-0.301 -0.517,-0.903 0,-0.589 0.172,-0.891 0.517,-0.891 1.44,0 3.064,0.062 4.868,0.192 1.722,0.129 3.236,0.195 4.55,0.195 1.312,0 2.914,-0.066 4.806,-0.195 1.996,-0.131 3.73,-0.192 5.191,-0.192 0.344,0 0.519,0.302 0.519,0.891 0,0.603 -0.175,0.903 -0.519,0.903 -1.827,0.216 -3.214,0.505 -4.16,0.857 -0.946,0.36 -1.601,0.842 -1.978,1.453 -0.377,0.613 -0.569,1.666 -0.569,3.173 v 30.358 c 0,2.001 0.472,3.334 1.407,4.001 0.937,0.664 2.697,1.149 5.3,1.451 0.346,0.043 0.521,0.335 0.521,0.871 l 0,0 z m 26.543,0 c 0,0.603 -0.171,0.904 -0.52,0.904 -1.438,0 -3.148,-0.065 -5.125,-0.195 -1.892,-0.127 -3.493,-0.192 -4.807,-0.192 -1.312,0 -2.914,0.065 -4.806,0.192 -1.999,0.13 -3.731,0.195 -5.191,0.195 -0.344,0 -0.519,-0.302 -0.519,-0.904 0,-0.536 0.175,-0.828 0.519,-0.87 2.603,-0.302 4.374,-0.787 5.31,-1.451 0.937,-0.667 1.397,-2 1.397,-4.001 v -30.358 c 0,-1.507 -0.182,-2.56 -0.56,-3.173 -0.375,-0.611 -1.041,-1.093 -1.987,-1.453 -0.946,-0.353 -2.333,-0.642 -4.16,-0.857 -0.344,0 -0.519,-0.301 -0.519,-0.903 0,-0.589 0.175,-0.891 0.519,-0.891 1.46,0 3.192,0.062 5.191,0.192 1.892,0.129 3.493,0.195 4.806,0.195 1.313,0 2.915,-0.066 4.807,-0.195 1.977,-0.131 3.687,-0.192 5.125,-0.192 0.349,0 0.52,0.302 0.52,0.891 0,0.603 -0.171,0.903 -0.52,0.903 -1.807,0.216 -3.181,0.505 -4.127,0.857 -0.947,0.36 -1.601,0.831 -1.965,1.434 -0.369,0.604 -0.55,1.663 -0.55,3.192 v 30.358 c 0,1.484 0.181,2.528 0.55,3.141 0.364,0.612 1.018,1.097 1.954,1.449 0.938,0.356 2.303,0.646 4.104,0.862 0.369,0.042 0.554,0.334 0.554,0.87 z m 57.827,0 c 0,0.603 -0.174,0.904 -0.517,0.904 -1.461,0 -3.192,-0.065 -5.192,-0.195 -1.894,-0.127 -3.493,-0.192 -4.805,-0.192 -1.313,0 -2.831,0.065 -4.549,0.192 -1.807,0.13 -3.431,0.195 -4.872,0.195 -0.342,0 -0.514,-0.302 -0.514,-0.904 0,-0.536 0.182,-0.828 0.547,-0.87 1.808,-0.216 3.15,-0.518 4.034,-0.891 0.881,-0.38 1.45,-0.871 1.696,-1.486 0.248,-0.611 0.365,-1.634 0.365,-3.075 V 339.431 H 494.71 v 14.384 c 0,1.441 0.128,2.464 0.378,3.075 0.244,0.615 0.805,1.106 1.686,1.486 0.883,0.373 2.238,0.675 4.065,0.891 0.344,0.042 0.513,0.334 0.513,0.87 0,0.603 -0.169,0.904 -0.513,0.904 -1.441,0 -3.065,-0.065 -4.871,-0.195 -1.72,-0.127 -3.234,-0.192 -4.548,-0.192 -1.31,0 -2.927,0.065 -4.839,0.192 -1.999,0.13 -3.719,0.195 -5.158,0.195 -0.344,0 -0.519,-0.302 -0.519,-0.904 0,-0.536 0.175,-0.828 0.519,-0.87 2.6,-0.302 4.376,-0.787 5.31,-1.451 0.937,-0.667 1.398,-2 1.398,-4.001 v -30.358 c 0,-1.507 -0.183,-2.56 -0.561,-3.173 -0.375,-0.611 -1.041,-1.093 -1.987,-1.453 -0.945,-0.353 -2.333,-0.642 -4.16,-0.857 -0.344,0 -0.519,-0.301 -0.519,-0.903 0,-0.589 0.175,-0.891 0.519,-0.891 1.439,0 3.159,0.062 5.158,0.192 1.912,0.129 3.529,0.195 4.839,0.195 1.313,0 2.828,-0.066 4.548,-0.195 1.806,-0.131 3.43,-0.192 4.871,-0.192 0.344,0 0.513,0.302 0.513,0.891 0,0.603 -0.169,0.903 -0.513,0.903 -1.68,0.192 -2.946,0.45 -3.808,0.773 -0.857,0.32 -1.46,0.765 -1.808,1.312 -0.344,0.547 -0.514,1.68 -0.514,3.398 v 13.91 h 24.607 v -13.91 c 0,-1.44 -0.117,-2.472 -0.365,-3.098 -0.246,-0.622 -0.807,-1.116 -1.677,-1.492 -0.87,-0.377 -2.235,-0.678 -4.087,-0.894 -0.342,0 -0.514,-0.301 -0.514,-0.903 0,-0.589 0.172,-0.891 0.514,-0.891 1.441,0 3.065,0.062 4.872,0.192 1.718,0.129 3.235,0.195 4.549,0.195 1.312,0 2.911,-0.066 4.805,-0.195 2,-0.131 3.731,-0.192 5.192,-0.192 0.343,0 0.517,0.302 0.517,0.891 0,0.603 -0.174,0.903 -0.517,0.903 -1.827,0.216 -3.214,0.505 -4.16,0.857 -0.947,0.36 -1.602,0.842 -1.979,1.453 -0.375,0.613 -0.567,1.666 -0.567,3.173 v 30.358 c 0,2.001 0.473,3.334 1.407,4.001 0.936,0.664 2.697,1.149 5.3,1.451 0.344,0.043 0.518,0.335 0.518,0.871 z m 51.465,-43.068 c 0,0.603 -0.175,0.903 -0.518,0.903 -2.71,0.344 -4.526,0.851 -5.45,1.505 -0.928,0.655 -1.389,1.979 -1.389,3.979 v 20.235 c 0,5.737 -1.388,10.232 -4.16,13.49 -2.773,3.256 -6.686,4.891 -11.74,4.891 -5.751,0 -10.246,-1.559 -13.471,-4.665 -3.225,-3.11 -4.835,-7.334 -4.835,-12.689 v -21.262 c 0,-1.482 -0.173,-2.523 -0.53,-3.14 -0.353,-0.616 -1.008,-1.107 -1.953,-1.473 -0.946,-0.366 -2.336,-0.655 -4.162,-0.871 -0.344,0 -0.517,-0.301 -0.517,-0.903 0,-0.589 0.173,-0.891 0.517,-0.891 1.441,0 3.149,0.062 5.127,0.192 1.892,0.129 3.496,0.195 4.806,0.195 1.312,0 2.927,-0.066 4.838,-0.195 2,-0.131 3.719,-0.192 5.159,-0.192 0.347,0 0.518,0.302 0.518,0.891 0,0.603 -0.171,0.903 -0.518,0.903 -1.826,0.216 -3.213,0.505 -4.16,0.857 -0.941,0.356 -1.601,0.842 -1.979,1.453 -0.372,0.613 -0.568,1.666 -0.568,3.173 v 20.362 c 0,5.287 1.001,9.168 3.002,11.645 1.996,2.472 5.255,3.705 9.771,3.705 8.492,0 12.737,-5.375 12.737,-16.125 v -19.587 c 0,-1.999 -0.471,-3.337 -1.431,-4.011 -0.955,-0.677 -2.763,-1.171 -5.404,-1.473 -0.343,0 -0.517,-0.301 -0.517,-0.903 0,-0.589 0.174,-0.891 0.517,-0.891 0.989,0 2.288,0.062 3.901,0.192 1.645,0.129 2.99,0.195 4.021,0.195 1.031,0 2.321,-0.066 3.869,-0.195 1.593,-0.131 2.924,-0.192 4.001,-0.192 0.343,0.002 0.518,0.303 0.518,0.892 l 0,0 z m 48.001,43.068 c 0,0.603 -0.175,0.904 -0.517,0.904 -1.483,0 -3.159,-0.065 -5.032,-0.195 -1.615,-0.127 -2.979,-0.192 -4.119,-0.192 -1.31,0 -2.933,0.065 -4.87,0.192 -2.043,0.13 -3.782,0.195 -5.222,0.195 -0.345,0 -0.517,-0.302 -0.517,-0.904 0,-0.589 0.127,-0.89 0.386,-0.89 1.915,-0.09 3.29,-0.349 4.127,-0.768 0.842,-0.418 1.262,-1.06 1.262,-1.953 0,-0.561 -0.217,-1.453 -0.646,-2.679 l -3.68,-10.805 h -13.265 l -3.689,9.996 c -0.473,1.336 -0.707,2.366 -0.707,3.098 0,1.905 1.741,2.934 5.226,3.11 0.259,0 0.386,0.301 0.386,0.89 0,0.603 -0.174,0.904 -0.517,0.904 -1.291,0 -2.721,-0.065 -4.289,-0.195 -1.483,-0.127 -2.806,-0.192 -3.967,-0.192 -0.924,0 -2.086,0.065 -3.475,0.192 -1.46,0.13 -2.708,0.195 -3.738,0.195 -0.323,0 -0.484,-0.269 -0.484,-0.807 0,-0.601 0.245,-0.926 0.739,-0.968 1.784,-0.171 3.206,-0.67 4.246,-1.484 1.045,-0.815 2.118,-2.483 3.236,-4.997 l 15.097,-37.059 c 0.128,-0.346 0.428,-0.517 0.903,-0.517 0.514,0 0.838,0.163 0.965,0.483 l 13.321,37.092 c 0.753,2.084 1.772,3.621 3.054,4.611 1.28,0.988 2.988,1.615 5.139,1.87 0.43,0.049 0.647,0.337 0.647,0.873 l 0,0 z m -19.533,-19.157 -5.667,-16.47 -6.119,16.47 h 11.786 z m 73.652,19.157 c 0,0.603 -0.175,0.904 -0.518,0.904 -1.463,0 -3.195,-0.065 -5.192,-0.195 -1.892,-0.127 -3.496,-0.192 -4.805,-0.192 -1.312,0 -2.829,0.065 -4.548,0.192 -1.808,0.13 -3.431,0.195 -4.872,0.195 -0.343,0 -0.517,-0.302 -0.517,-0.904 0,-0.536 0.185,-0.828 0.55,-0.87 1.808,-0.216 3.15,-0.518 4.034,-0.891 0.882,-0.38 1.449,-0.871 1.696,-1.486 0.248,-0.611 0.365,-1.634 0.365,-3.075 v -14.384 h -24.607 v 14.384 c 0,1.441 0.128,2.464 0.377,3.075 0.245,0.615 0.806,1.106 1.686,1.486 0.881,0.373 2.236,0.675 4.066,0.891 0.344,0.042 0.514,0.334 0.514,0.87 0,0.603 -0.17,0.904 -0.514,0.904 -1.444,0 -3.065,-0.065 -4.873,-0.195 -1.722,-0.127 -3.235,-0.192 -4.546,-0.192 -1.313,0 -2.923,0.065 -4.838,0.192 -2,0.13 -3.72,0.195 -5.162,0.195 -0.345,0 -0.516,-0.302 -0.516,-0.904 0,-0.536 0.171,-0.828 0.516,-0.87 2.602,-0.302 4.376,-0.787 5.312,-1.451 0.933,-0.667 1.398,-2 1.398,-4.001 v -30.358 c 0,-1.507 -0.185,-2.56 -0.561,-3.173 -0.375,-0.611 -1.041,-1.093 -1.987,-1.453 -0.948,-0.353 -2.335,-0.642 -4.163,-0.857 -0.345,0 -0.516,-0.301 -0.516,-0.903 0,-0.589 0.171,-0.891 0.516,-0.891 1.442,0 3.162,0.062 5.162,0.192 1.915,0.129 3.524,0.195 4.838,0.195 1.311,0 2.824,-0.066 4.546,-0.195 1.808,-0.131 3.429,-0.192 4.873,-0.192 0.344,0 0.514,0.302 0.514,0.891 0,0.603 -0.17,0.903 -0.514,0.903 -1.679,0.192 -2.945,0.45 -3.808,0.773 -0.861,0.32 -1.459,0.765 -1.808,1.312 -0.343,0.547 -0.514,1.68 -0.514,3.398 v 13.91 H 672.9 v -13.91 c 0,-1.44 -0.117,-2.472 -0.365,-3.098 -0.247,-0.622 -0.807,-1.116 -1.677,-1.492 -0.87,-0.377 -2.235,-0.678 -4.087,-0.894 -0.343,0 -0.517,-0.301 -0.517,-0.903 0,-0.589 0.174,-0.891 0.517,-0.891 1.441,0 3.064,0.062 4.872,0.192 1.719,0.129 3.235,0.195 4.548,0.195 1.309,0 2.913,-0.066 4.805,-0.195 1.997,-0.131 3.729,-0.192 5.192,-0.192 0.343,0 0.518,0.302 0.518,0.891 0,0.603 -0.175,0.903 -0.518,0.903 -1.826,0.216 -3.213,0.505 -4.161,0.857 -0.945,0.36 -1.6,0.842 -1.978,1.453 -0.375,0.613 -0.572,1.666 -0.572,3.173 v 30.358 c 0,2.001 0.475,3.334 1.411,4.001 0.938,0.664 2.698,1.149 5.3,1.451 0.346,0.043 0.521,0.335 0.521,0.871 z m 51.461,-43.068 c 0,0.603 -0.17,0.903 -0.514,0.903 -2.71,0.344 -4.526,0.851 -5.454,1.505 -0.924,0.655 -1.385,1.979 -1.385,3.979 v 20.235 c 0,5.737 -1.388,10.232 -4.16,13.49 -2.773,3.256 -6.688,4.891 -11.74,4.891 -5.751,0 -10.246,-1.559 -13.471,-4.665 -3.225,-3.11 -4.837,-7.334 -4.837,-12.689 v -21.262 c 0,-1.482 -0.171,-2.523 -0.527,-3.14 -0.355,-0.616 -1.011,-1.107 -1.957,-1.473 -0.947,-0.366 -2.332,-0.655 -4.159,-0.871 -0.347,0 -0.517,-0.301 -0.517,-0.903 0,-0.589 0.17,-0.891 0.517,-0.891 1.441,0 3.15,0.062 5.127,0.192 1.893,0.129 3.497,0.195 4.805,0.195 1.312,0 2.925,-0.066 4.839,-0.195 2.001,-0.131 3.719,-0.192 5.159,-0.192 0.343,0 0.518,0.302 0.518,0.891 0,0.603 -0.175,0.903 -0.518,0.903 -1.826,0.216 -3.215,0.505 -4.16,0.857 -0.947,0.356 -1.6,0.842 -1.979,1.453 -0.375,0.613 -0.568,1.666 -0.568,3.173 v 20.362 c 0,5.287 0.998,9.168 2.999,11.645 1.999,2.472 5.256,3.705 9.775,3.705 8.491,0 12.736,-5.375 12.736,-16.125 v -19.587 c 0,-1.999 -0.471,-3.337 -1.431,-4.011 -0.956,-0.677 -2.763,-1.171 -5.407,-1.473 -0.343,0 -0.514,-0.301 -0.514,-0.903 0,-0.589 0.171,-0.891 0.514,-0.891 0.992,0 2.291,0.062 3.904,0.192 1.645,0.129 2.987,0.195 4.021,0.195 1.031,0 2.321,-0.066 3.869,-0.195 1.591,-0.131 2.924,-0.192 4.001,-0.192 0.344,0.002 0.514,0.303 0.514,0.892 l 0,0 z m 48.001,43.068 c 0,0.603 -0.171,0.904 -0.515,0.904 -1.481,0 -3.16,-0.065 -5.03,-0.195 -1.615,-0.127 -2.979,-0.192 -4.118,-0.192 -1.313,0 -2.935,0.065 -4.872,0.192 -2.042,0.13 -3.782,0.195 -5.225,0.195 -0.344,0 -0.515,-0.302 -0.515,-0.904 0,-0.589 0.129,-0.89 0.389,-0.89 1.911,-0.09 3.289,-0.349 4.127,-0.768 0.837,-0.418 1.258,-1.06 1.258,-1.953 0,-0.561 -0.218,-1.453 -0.646,-2.679 l -3.676,-10.805 h -13.269 l -3.686,9.996 c -0.476,1.336 -0.71,2.366 -0.71,3.098 0,1.905 1.741,2.934 5.226,3.11 0.258,0 0.386,0.301 0.386,0.89 0,0.603 -0.17,0.904 -0.514,0.904 -1.291,0 -2.721,-0.065 -4.289,-0.195 -1.488,-0.127 -2.806,-0.192 -3.967,-0.192 -0.928,0 -2.086,0.065 -3.475,0.192 -1.463,0.13 -2.707,0.195 -3.741,0.195 -0.324,0 -0.484,-0.269 -0.484,-0.807 0,-0.601 0.248,-0.926 0.742,-0.968 1.784,-0.171 3.206,-0.67 4.247,-1.484 1.04,-0.815 2.117,-2.483 3.236,-4.997 l 15.097,-37.059 c 0.126,-0.346 0.427,-0.517 0.898,-0.517 0.517,0 0.842,0.163 0.969,0.483 l 13.321,37.092 c 0.749,2.084 1.773,3.621 3.051,4.611 1.28,0.988 2.987,1.615 5.139,1.87 0.43,0.049 0.646,0.337 0.646,0.873 l 0,0 z m -19.533,-19.157 -5.662,-16.47 -6.12,16.47 h 11.782 z M 695.256,293.1 c 0,2.937 -0.946,5.335 -2.835,7.205 -1.892,1.867 -4.359,2.806 -7.408,2.806 -3.05,0 -5.516,-0.939 -7.401,-2.806 -1.886,-1.87 -2.832,-4.268 -2.832,-7.205 0,-2.947 0.95,-5.382 2.852,-7.307 1.899,-1.925 4.361,-2.881 7.382,-2.881 3.028,0 5.494,0.956 7.395,2.881 1.898,1.925 2.847,4.36 2.847,7.307 z m -3.057,0 c 0,-2.733 -0.658,-4.968 -1.982,-6.699 -1.317,-1.733 -3.056,-2.598 -5.204,-2.598 -2.161,0 -3.893,0.865 -5.204,2.598 -1.313,1.73 -1.972,3.966 -1.972,6.699 0,2.718 0.655,4.91 1.958,6.593 1.303,1.682 3.038,2.527 5.218,2.527 2.168,0 3.909,-0.845 5.223,-2.527 1.309,-1.683 1.963,-3.876 1.963,-6.593 l 0,0 z m 30.772,9.176 c 0,0.259 -0.076,0.39 -0.226,0.39 -0.619,0 -1.375,-0.03 -2.263,-0.086 -0.854,-0.055 -1.564,-0.085 -2.128,-0.085 -0.562,0 -1.25,0.03 -2.068,0.085 -0.853,0.057 -1.587,0.086 -2.206,0.086 -0.17,0 -0.254,-0.131 -0.254,-0.39 0,-0.232 0.076,-0.357 0.223,-0.377 1.084,-0.131 1.827,-0.331 2.22,-0.594 0.393,-0.273 0.59,-0.781 0.59,-1.534 v -0.223 l -0.583,-13.468 -6.704,16.804 c -0.051,0.147 -0.182,0.226 -0.386,0.226 -0.214,0 -0.337,-0.079 -0.377,-0.226 l -6.311,-16.135 -0.998,12.806 c -0.021,0.157 -0.031,0.294 -0.031,0.416 0,0.622 0.214,1.064 0.64,1.334 0.429,0.266 1.188,0.463 2.281,0.586 0.132,0.015 0.193,0.146 0.193,0.386 0,0.259 -0.083,0.39 -0.249,0.39 -0.482,0 -1.139,-0.03 -1.975,-0.086 -0.778,-0.055 -1.382,-0.085 -1.804,-0.085 -0.462,0 -1.093,0.03 -1.889,0.085 -0.769,0.057 -1.364,0.086 -1.78,0.086 -0.128,0 -0.193,-0.131 -0.193,-0.39 0,-0.232 0.081,-0.357 0.248,-0.377 1.169,-0.14 1.98,-0.357 2.43,-0.655 0.449,-0.295 0.703,-0.859 0.77,-1.696 l 1.443,-13.083 c 0.01,-0.167 0.016,-0.318 0.016,-0.446 0,-0.598 -0.215,-1.038 -0.638,-1.306 -0.429,-0.268 -1.2,-0.471 -2.324,-0.608 -0.127,0 -0.193,-0.131 -0.193,-0.393 0,-0.084 0.03,-0.177 0.084,-0.258 0.054,-0.081 0.109,-0.124 0.167,-0.124 0.342,0 0.829,0.025 1.459,0.081 0.536,0.059 0.929,0.086 1.181,0.086 0.323,0 0.789,-0.027 1.392,-0.086 0.619,-0.056 1.1,-0.081 1.445,-0.081 l 5.966,15.448 6.166,-15.448 c 0.368,0 0.856,0.025 1.456,0.081 0.542,0.059 0.975,0.086 1.289,0.086 0.389,0 0.857,-0.027 1.404,-0.086 0.563,-0.056 1.051,-0.081 1.459,-0.081 0.167,0 0.251,0.127 0.251,0.382 0,0.262 -0.073,0.393 -0.221,0.393 -1.086,0.127 -1.824,0.327 -2.217,0.596 -0.395,0.267 -0.591,0.779 -0.591,1.529 v 0.236 l 0.638,13.083 c 0.029,0.648 0.131,1.105 0.301,1.364 0.171,0.262 0.463,0.463 0.882,0.615 0.415,0.157 1.015,0.281 1.79,0.373 0.149,0.017 0.225,0.142 0.225,0.374 l 0,0 z m 20.938,0 c 0,0.259 -0.076,0.39 -0.223,0.39 -0.643,0 -1.365,-0.03 -2.171,-0.086 -0.693,-0.055 -1.282,-0.085 -1.773,-0.085 -0.567,0 -1.266,0.03 -2.1,0.085 -0.88,0.057 -1.63,0.086 -2.252,0.086 -0.146,0 -0.223,-0.131 -0.223,-0.39 0,-0.259 0.056,-0.386 0.167,-0.386 0.823,-0.036 1.417,-0.148 1.78,-0.332 0.36,-0.178 0.541,-0.458 0.541,-0.84 0,-0.24 -0.093,-0.626 -0.279,-1.157 l -1.583,-4.654 h -5.716 l -1.591,4.308 c -0.203,0.576 -0.306,1.021 -0.306,1.336 0,0.818 0.75,1.264 2.253,1.339 0.112,0 0.167,0.126 0.167,0.386 0,0.259 -0.076,0.39 -0.223,0.39 -0.557,0 -1.175,-0.03 -1.85,-0.086 -0.639,-0.055 -1.207,-0.085 -1.709,-0.085 -0.399,0 -0.901,0.03 -1.499,0.085 -0.629,0.057 -1.164,0.086 -1.612,0.086 -0.137,0 -0.207,-0.119 -0.207,-0.352 0,-0.259 0.106,-0.395 0.32,-0.416 0.769,-0.075 1.38,-0.288 1.83,-0.641 0.451,-0.35 0.913,-1.066 1.394,-2.154 l 6.504,-15.968 c 0.058,-0.151 0.188,-0.224 0.39,-0.224 0.224,0 0.363,0.068 0.421,0.207 l 5.738,15.985 c 0.324,0.899 0.766,1.565 1.315,1.99 0.553,0.426 1.29,0.694 2.216,0.805 0.185,0.021 0.279,0.145 0.279,0.374 v 0.004 z m -8.421,-8.26 -2.441,-7.097 -2.635,7.097 h 5.076 z m 37.111,-0.891 c 0,2.856 -0.956,5.159 -2.864,6.908 -1.909,1.755 -4.489,2.633 -7.743,2.633 -0.404,0 -1.23,-0.021 -2.475,-0.059 -1.28,-0.036 -2.13,-0.054 -2.556,-0.054 -1.725,0 -3.401,0.033 -5.031,0.113 -0.15,0 -0.223,-0.131 -0.223,-0.39 0,-0.232 0.072,-0.357 0.223,-0.377 0.768,-0.091 1.354,-0.215 1.764,-0.373 0.409,-0.151 0.695,-0.353 0.857,-0.615 0.161,-0.259 0.239,-0.716 0.239,-1.364 V 286.52 c 0,-0.64 -0.072,-1.091 -0.226,-1.353 -0.153,-0.265 -0.436,-0.477 -0.845,-0.634 -0.406,-0.157 -1.005,-0.284 -1.79,-0.377 -0.15,0 -0.223,-0.131 -0.223,-0.39 0,-0.252 0.072,-0.383 0.223,-0.383 1.083,0.072 2.759,0.112 5.031,0.112 0.426,0 1.275,-0.014 2.556,-0.043 1.244,-0.029 2.07,-0.043 2.475,-0.043 3.17,0 5.732,0.904 7.685,2.717 1.951,1.811 2.923,4.145 2.923,6.999 l 0,0 z m -3.058,0 c 0,-2.52 -0.72,-4.615 -2.16,-6.292 -1.441,-1.67 -3.247,-2.511 -5.415,-2.511 h -0.084 l -2.613,0.057 c -1.094,0.035 -1.644,0.576 -1.644,1.613 v 14.09 c 0,1.058 0.55,1.583 1.644,1.583 l 2.613,0.083 c 2.159,0 3.974,-0.826 5.449,-2.467 1.474,-1.644 2.21,-3.7 2.21,-6.156 l 0,0 z m 22.101,4.95 c -0.75,1.604 -1.361,3.133 -1.834,4.591 -3.493,-0.113 -5.983,-0.171 -7.463,-0.171 -1.468,0 -3.948,0.059 -7.454,0.171 -0.148,0 -0.222,-0.131 -0.222,-0.39 0,-0.232 0.073,-0.357 0.222,-0.377 0.769,-0.091 1.358,-0.215 1.766,-0.373 0.407,-0.151 0.695,-0.353 0.859,-0.615 0.16,-0.259 0.239,-0.716 0.239,-1.364 v -13.083 c 0,-0.639 -0.072,-1.091 -0.226,-1.353 -0.156,-0.265 -0.436,-0.477 -0.845,-0.634 -0.406,-0.159 -1.006,-0.283 -1.794,-0.374 -0.148,0 -0.222,-0.131 -0.222,-0.393 0,-0.255 0.073,-0.382 0.222,-0.382 2.337,0.11 4.728,0.167 7.173,0.167 2.467,0 4.86,-0.057 7.188,-0.167 0.214,1.437 0.523,2.85 0.931,4.251 0,0.188 -0.161,0.283 -0.484,0.283 -0.156,0 -0.257,-0.065 -0.291,-0.196 -0.688,-2.187 -2.15,-3.281 -4.395,-3.281 h -2.809 c -1.074,0 -1.613,0.557 -1.613,1.667 v 6.185 h 3.502 c 0.931,0 1.56,-0.21 1.891,-0.636 0.325,-0.429 0.559,-1.186 0.688,-2.264 0,-0.152 0.131,-0.226 0.39,-0.226 0.255,0 0.386,0.074 0.386,0.226 0,0.457 -0.03,1.042 -0.087,1.748 -0.055,0.677 -0.081,1.227 -0.081,1.656 0,0.433 0.026,0.989 0.081,1.667 0.057,0.724 0.087,1.316 0.087,1.777 0,0.151 -0.131,0.224 -0.386,0.224 -0.259,0 -0.39,-0.072 -0.39,-0.224 -0.138,-1.129 -0.385,-1.918 -0.731,-2.377 -0.349,-0.451 -0.965,-0.681 -1.847,-0.681 h -3.502 v 6.842 c 0,1.095 0.539,1.637 1.613,1.637 h 3.032 c 1.103,0 2.196,-0.36 3.279,-1.077 1.085,-0.717 1.879,-1.613 2.391,-2.687 0.038,-0.086 0.117,-0.124 0.234,-0.124 0.131,0 0.247,0.032 0.352,0.099 0.099,0.068 0.15,0.158 0.15,0.258 l 0,0 z M 366.029,281.286 c 0,0.295 -0.086,0.441 -0.253,0.441 -1.318,0.167 -2.203,0.414 -2.65,0.73 -0.453,0.321 -0.676,0.965 -0.676,1.937 v 9.843 c 0,2.795 -0.677,4.982 -2.026,6.568 -1.348,1.584 -3.253,2.38 -5.711,2.38 -2.8,0 -4.987,-0.756 -6.554,-2.269 -1.572,-1.512 -2.357,-3.568 -2.357,-6.174 v -10.348 c 0,-0.72 -0.083,-1.227 -0.255,-1.527 -0.174,-0.3 -0.491,-0.54 -0.953,-0.717 -0.458,-0.179 -1.132,-0.318 -2.023,-0.424 -0.167,0 -0.251,-0.146 -0.251,-0.441 0,-0.286 0.084,-0.431 0.251,-0.431 0.699,0 1.532,0.029 2.493,0.093 0.92,0.062 1.703,0.092 2.339,0.092 0.638,0 1.423,-0.031 2.355,-0.092 0.974,-0.064 1.812,-0.093 2.511,-0.093 0.167,0 0.254,0.145 0.254,0.431 0,0.295 -0.086,0.441 -0.254,0.441 -0.889,0.105 -1.564,0.245 -2.024,0.418 -0.458,0.174 -0.779,0.409 -0.963,0.705 -0.183,0.299 -0.274,0.813 -0.274,1.544 v 9.909 c 0,2.573 0.484,4.462 1.456,5.663 0.976,1.207 2.559,1.808 4.756,1.808 4.134,0 6.201,-2.615 6.201,-7.849 v -9.53 c 0,-0.972 -0.233,-1.622 -0.698,-1.951 -0.464,-0.331 -1.345,-0.57 -2.632,-0.717 -0.167,0 -0.249,-0.146 -0.249,-0.441 0,-0.286 0.081,-0.431 0.249,-0.431 0.481,0 1.117,0.029 1.899,0.093 0.801,0.062 1.456,0.092 1.958,0.092 0.503,0 1.128,-0.031 1.882,-0.092 0.775,-0.064 1.423,-0.093 1.947,-0.093 0.166,0.001 0.252,0.146 0.252,0.432 l 0,0 z m 24.204,2.432 c 0,0.229 -0.074,0.353 -0.222,0.373 -1.158,0.131 -1.951,0.344 -2.384,0.642 -0.429,0.295 -0.658,0.864 -0.673,1.711 l -0.309,16.385 c 0,0.187 -0.106,0.281 -0.334,0.281 -0.11,0 -0.259,-0.079 -0.445,-0.226 l -14.331,-16.194 -0.193,12.857 c -0.007,0.076 -0.014,0.145 -0.014,0.211 0,0.703 0.222,1.197 0.668,1.491 0.445,0.292 1.243,0.509 2.402,0.649 0.15,0.021 0.223,0.145 0.223,0.377 0,0.259 -0.072,0.39 -0.223,0.39 -0.48,0 -1.146,-0.03 -1.987,-0.086 -0.786,-0.055 -1.395,-0.085 -1.82,-0.085 -0.465,0 -1.091,0.03 -1.876,0.085 -0.76,0.057 -1.35,0.086 -1.765,0.086 -0.15,0 -0.226,-0.131 -0.226,-0.39 0,-0.232 0.086,-0.357 0.252,-0.377 1.149,-0.14 1.935,-0.357 2.364,-0.649 0.426,-0.294 0.652,-0.857 0.681,-1.702 l 0.488,-13.083 v -0.126 c 0,-0.75 -0.219,-1.273 -0.655,-1.57 -0.435,-0.297 -1.248,-0.52 -2.432,-0.665 -0.131,0 -0.196,-0.131 -0.196,-0.393 0,-0.255 0.074,-0.382 0.222,-0.382 0.328,0 0.779,0.029 1.362,0.081 0.521,0.059 0.91,0.086 1.168,0.086 0.324,0 0.713,-0.027 1.17,-0.086 0.46,-0.052 0.86,-0.081 1.194,-0.081 l 13.385,14.971 v -11.855 c 0,-0.789 -0.222,-1.342 -0.67,-1.663 -0.449,-0.317 -1.284,-0.55 -2.497,-0.691 -0.148,-0.016 -0.224,-0.144 -0.224,-0.373 0,-0.262 0.076,-0.389 0.224,-0.389 0.5,0 1.168,0.025 1.999,0.081 0.779,0.059 1.382,0.086 1.808,0.086 0.465,0 1.089,-0.027 1.878,-0.086 0.76,-0.056 1.346,-0.081 1.765,-0.081 0.149,0.001 0.223,0.128 0.223,0.39 l 0,0 z m 10.716,18.558 c 0,0.259 -0.072,0.39 -0.225,0.39 -0.618,0 -1.354,-0.03 -2.209,-0.086 -0.815,-0.055 -1.506,-0.085 -2.068,-0.085 -0.567,0 -1.258,0.03 -2.073,0.085 -0.86,0.057 -1.606,0.086 -2.239,0.086 -0.148,0 -0.219,-0.131 -0.219,-0.39 0,-0.232 0.071,-0.357 0.219,-0.377 1.122,-0.131 1.889,-0.34 2.292,-0.629 0.401,-0.285 0.601,-0.856 0.601,-1.722 v -13.083 c 0,-0.65 -0.078,-1.105 -0.241,-1.367 -0.162,-0.264 -0.45,-0.471 -0.858,-0.627 -0.407,-0.152 -1.005,-0.276 -1.794,-0.367 -0.148,0 -0.219,-0.131 -0.219,-0.393 0,-0.255 0.071,-0.382 0.219,-0.382 0.632,0 1.379,0.025 2.239,0.081 0.815,0.059 1.506,0.086 2.073,0.086 0.562,0 1.252,-0.027 2.068,-0.086 0.854,-0.056 1.591,-0.081 2.209,-0.081 0.152,0 0.225,0.127 0.225,0.382 0,0.262 -0.072,0.393 -0.225,0.393 -0.775,0.091 -1.368,0.215 -1.776,0.367 -0.406,0.156 -0.691,0.36 -0.848,0.615 -0.157,0.262 -0.236,0.72 -0.236,1.378 v 13.083 c 0,0.644 0.079,1.091 0.236,1.356 0.156,0.262 0.441,0.471 0.845,0.623 0.402,0.157 0.988,0.281 1.768,0.373 0.16,0.02 0.236,0.145 0.236,0.377 l 0,0 z m 23.032,-18.613 c 0,0.291 -0.102,0.441 -0.304,0.441 -0.814,0.072 -1.434,0.272 -1.854,0.596 -0.422,0.324 -0.882,1.067 -1.384,2.212 l -6.979,15.972 c -0.062,0.147 -0.192,0.226 -0.389,0.226 -0.186,0 -0.306,-0.081 -0.361,-0.24 l -6.226,-15.958 c -0.345,-0.897 -0.626,-1.492 -0.854,-1.787 -0.226,-0.291 -0.534,-0.512 -0.914,-0.654 -0.379,-0.145 -0.994,-0.269 -1.849,-0.367 -0.062,0 -0.124,-0.04 -0.185,-0.117 -0.062,-0.08 -0.091,-0.171 -0.091,-0.276 0,-0.255 0.065,-0.382 0.192,-0.382 0.622,0 1.307,0.025 2.063,0.081 0.713,0.059 1.353,0.086 1.918,0.086 0.57,0 1.27,-0.027 2.103,-0.086 0.873,-0.056 1.616,-0.081 2.238,-0.081 0.148,0 0.223,0.127 0.223,0.382 0,0.262 -0.045,0.393 -0.139,0.393 -0.814,0.033 -1.402,0.141 -1.766,0.313 -0.361,0.178 -0.542,0.454 -0.542,0.826 0,0.229 0.112,0.636 0.334,1.205 l 4.804,12.656 4.985,-12.282 c 0.167,-0.545 0.252,-0.941 0.252,-1.205 0,-0.917 -0.806,-1.421 -2.42,-1.513 -0.11,0 -0.167,-0.131 -0.167,-0.393 0,-0.255 0.082,-0.382 0.25,-0.382 0.438,0 1.008,0.025 1.711,0.081 0.775,0.059 1.422,0.086 1.932,0.086 0.419,0 0.949,-0.027 1.598,-0.086 0.669,-0.056 1.219,-0.081 1.656,-0.081 0.112,0 0.164,0.11 0.164,0.331 v 0.003 z m 17.796,14.412 c -0.753,1.604 -1.367,3.133 -1.837,4.591 -3.493,-0.113 -5.981,-0.171 -7.463,-0.171 -1.464,0 -3.948,0.059 -7.452,0.171 -0.146,0 -0.222,-0.131 -0.222,-0.39 0,-0.232 0.075,-0.357 0.222,-0.377 0.771,-0.091 1.36,-0.215 1.765,-0.373 0.41,-0.151 0.698,-0.353 0.858,-0.615 0.164,-0.259 0.241,-0.716 0.241,-1.364 v -13.083 c 0,-0.639 -0.074,-1.091 -0.229,-1.353 -0.15,-0.265 -0.434,-0.477 -0.841,-0.634 -0.408,-0.159 -1.008,-0.283 -1.794,-0.374 -0.146,0 -0.222,-0.131 -0.222,-0.393 0,-0.255 0.075,-0.382 0.222,-0.382 2.335,0.11 4.727,0.167 7.173,0.167 2.466,0 4.861,-0.057 7.186,-0.167 0.212,1.437 0.524,2.85 0.933,4.251 0,0.188 -0.163,0.283 -0.487,0.283 -0.158,0 -0.256,-0.065 -0.292,-0.196 -0.688,-2.187 -2.149,-3.281 -4.393,-3.281 h -2.809 c -1.073,0 -1.611,0.557 -1.611,1.667 v 6.185 h 3.503 c 0.928,0 1.555,-0.21 1.886,-0.636 0.327,-0.429 0.561,-1.186 0.691,-2.264 0,-0.152 0.127,-0.226 0.389,-0.226 0.252,0 0.383,0.074 0.383,0.226 0,0.457 -0.025,1.042 -0.081,1.748 -0.055,0.677 -0.087,1.227 -0.087,1.656 0,0.433 0.032,0.989 0.087,1.667 0.056,0.724 0.081,1.316 0.081,1.777 0,0.151 -0.131,0.224 -0.383,0.224 -0.262,0 -0.389,-0.072 -0.389,-0.224 -0.142,-1.129 -0.387,-1.918 -0.734,-2.377 -0.347,-0.451 -0.962,-0.681 -1.843,-0.681 h -3.503 v 6.842 c 0,1.095 0.538,1.637 1.611,1.637 h 3.031 c 1.103,0 2.197,-0.36 3.279,-1.077 1.085,-0.717 1.884,-1.613 2.394,-2.687 0.036,-0.086 0.115,-0.124 0.236,-0.124 0.127,0 0.244,0.032 0.347,0.099 0.102,0.068 0.154,0.158 0.154,0.258 l 0,0 z m 20.459,4.201 c 0,0.259 -0.075,0.39 -0.223,0.39 -0.344,0 -0.902,-0.033 -1.683,-0.099 -0.562,-0.046 -0.939,-0.072 -1.125,-0.072 -0.27,0 -0.688,0.03 -1.264,0.085 -0.577,0.057 -0.996,0.086 -1.264,0.086 l -4.213,-6.866 c -0.593,-0.95 -1.07,-1.555 -1.438,-1.823 -0.367,-0.269 -1.103,-0.406 -2.207,-0.406 v 5.977 c 0,0.644 0.086,1.091 0.246,1.356 0.164,0.262 0.452,0.471 0.863,0.623 0.414,0.157 1,0.281 1.771,0.373 0.153,0.021 0.236,0.145 0.236,0.377 0,0.259 -0.076,0.39 -0.223,0.39 -0.622,0 -1.362,-0.03 -2.227,-0.086 -0.825,-0.055 -1.519,-0.085 -2.085,-0.085 -0.563,0 -1.255,0.03 -2.069,0.085 -0.854,0.057 -1.591,0.086 -2.213,0.086 -0.146,0 -0.223,-0.131 -0.223,-0.39 0,-0.232 0.076,-0.357 0.223,-0.377 0.773,-0.091 1.359,-0.215 1.769,-0.373 0.406,-0.151 0.694,-0.353 0.854,-0.615 0.164,-0.259 0.241,-0.716 0.241,-1.364 v -13.083 c 0,-0.639 -0.071,-1.091 -0.226,-1.353 -0.153,-0.265 -0.435,-0.477 -0.845,-0.634 -0.405,-0.159 -1.005,-0.283 -1.794,-0.374 -0.146,0 -0.223,-0.131 -0.223,-0.393 0,-0.255 0.076,-0.382 0.223,-0.382 0.622,0 1.359,0.025 2.213,0.081 0.814,0.059 1.506,0.086 2.069,0.086 0.566,0 1.26,-0.027 2.085,-0.086 0.864,-0.056 1.604,-0.081 2.227,-0.081 2.064,0 3.662,0.429 4.796,1.299 1.129,0.858 1.696,2.072 1.696,3.64 0,0.986 -0.371,1.906 -1.116,2.747 -0.747,0.848 -1.755,1.496 -3.021,1.955 l 4.273,6.969 c 0.371,0.613 0.849,1.065 1.435,1.359 0.584,0.292 1.339,0.491 2.266,0.602 0.132,0.019 0.196,0.144 0.196,0.376 l 0,0 z m -7.087,-13.943 c 0,-2.711 -1.185,-4.065 -3.546,-4.065 -0.778,0 -1.367,0.065 -1.771,0.189 -0.401,0.124 -0.67,0.321 -0.804,0.589 -0.139,0.269 -0.207,0.739 -0.207,1.42 v 6.195 c 0.541,0.071 1.215,0.11 2.029,0.11 1.492,0 2.584,-0.353 3.268,-1.06 0.689,-0.7 1.031,-1.833 1.031,-3.378 z m 20.382,8.74 c 0,1.847 -0.547,3.311 -1.64,4.399 -1.095,1.088 -2.573,1.638 -4.439,1.638 -0.825,0 -1.814,-0.15 -2.958,-0.444 -1.052,-0.283 -1.906,-0.418 -2.575,-0.418 -0.056,-1.576 -0.165,-3.151 -0.332,-4.728 0,-0.148 0.136,-0.224 0.415,-0.224 0.196,0 0.313,0.076 0.363,0.224 0.5,1.722 1.139,2.938 1.918,3.64 0.775,0.707 1.873,1.06 3.279,1.06 1.124,0 1.99,-0.328 2.609,-0.976 0.614,-0.647 0.921,-1.557 0.921,-2.723 0,-0.75 -0.27,-1.451 -0.806,-2.096 -0.537,-0.641 -1.684,-1.473 -3.435,-2.49 -2.01,-1.159 -3.326,-2.142 -3.948,-2.95 -0.618,-0.805 -0.929,-1.695 -0.929,-2.681 0,-1.51 0.561,-2.789 1.676,-3.833 1.116,-1.041 2.531,-1.56 4.249,-1.56 0.648,0 1.394,0.086 2.238,0.264 0.786,0.156 1.471,0.234 2.045,0.234 0.109,1.63 0.262,3.071 0.443,4.308 0,0.151 -0.12,0.223 -0.359,0.223 -0.263,0 -0.405,-0.071 -0.433,-0.223 -0.307,-1.387 -0.769,-2.39 -1.391,-3.002 -0.618,-0.608 -1.478,-0.913 -2.573,-0.913 -1.041,0 -1.867,0.305 -2.481,0.913 -0.611,0.612 -0.917,1.438 -0.917,2.479 0,0.655 0.259,1.28 0.772,1.88 0.516,0.594 1.634,1.401 3.346,2.402 2.03,1.186 3.366,2.173 3.994,2.973 0.634,0.798 0.948,1.67 0.948,2.624 l 0,0 z m 11.657,5.203 c 0,0.259 -0.075,0.39 -0.222,0.39 -0.622,0 -1.36,-0.03 -2.211,-0.086 -0.815,-0.055 -1.505,-0.085 -2.071,-0.085 -0.563,0 -1.255,0.03 -2.07,0.085 -0.863,0.057 -1.609,0.086 -2.238,0.086 -0.146,0 -0.223,-0.131 -0.223,-0.39 0,-0.232 0.076,-0.357 0.223,-0.377 1.12,-0.131 1.885,-0.34 2.289,-0.629 0.402,-0.285 0.601,-0.856 0.601,-1.722 v -13.083 c 0,-0.65 -0.077,-1.105 -0.237,-1.367 -0.164,-0.264 -0.452,-0.471 -0.859,-0.627 -0.408,-0.152 -1.004,-0.276 -1.793,-0.367 -0.146,0 -0.223,-0.131 -0.223,-0.393 0,-0.255 0.076,-0.382 0.223,-0.382 0.629,0 1.375,0.025 2.238,0.081 0.815,0.059 1.507,0.086 2.07,0.086 0.566,0 1.256,-0.027 2.071,-0.086 0.851,-0.056 1.589,-0.081 2.211,-0.081 0.146,0 0.222,0.127 0.222,0.382 0,0.262 -0.075,0.393 -0.222,0.393 -0.777,0.091 -1.372,0.215 -1.779,0.367 -0.407,0.156 -0.694,0.36 -0.848,0.615 -0.16,0.262 -0.237,0.72 -0.237,1.378 v 13.083 c 0,0.644 0.077,1.091 0.237,1.356 0.153,0.262 0.44,0.471 0.842,0.623 0.402,0.157 0.991,0.281 1.771,0.373 0.156,0.02 0.235,0.145 0.235,0.377 l 0,0 z m 23.337,-9.151 c 0,2.856 -0.952,5.159 -2.86,6.908 -1.909,1.755 -4.49,2.633 -7.746,2.633 -0.404,0 -1.23,-0.021 -2.472,-0.059 -1.28,-0.036 -2.129,-0.054 -2.559,-0.054 -1.722,0 -3.401,0.033 -5.032,0.113 -0.146,0 -0.219,-0.131 -0.219,-0.39 0,-0.232 0.072,-0.357 0.219,-0.377 0.769,-0.091 1.358,-0.215 1.769,-0.373 0.404,-0.151 0.694,-0.353 0.858,-0.615 0.159,-0.259 0.237,-0.716 0.237,-1.364 V 286.52 c 0,-0.64 -0.075,-1.091 -0.229,-1.353 -0.15,-0.265 -0.433,-0.477 -0.842,-0.634 -0.408,-0.16 -1.005,-0.284 -1.794,-0.377 -0.146,0 -0.219,-0.131 -0.219,-0.39 0,-0.252 0.072,-0.383 0.219,-0.383 1.084,0.072 2.762,0.112 5.035,0.112 0.427,0 1.275,-0.014 2.556,-0.043 1.241,-0.029 2.067,-0.043 2.472,-0.043 3.173,0 5.737,0.904 7.685,2.717 1.951,1.811 2.922,4.145 2.922,6.999 l 0,0 z m -3.056,0 c 0,-2.52 -0.717,-4.615 -2.157,-6.292 -1.444,-1.67 -3.25,-2.511 -5.418,-2.511 h -0.085 l -2.612,0.057 c -1.095,0.035 -1.641,0.576 -1.641,1.61 v 14.093 c 0,1.058 0.546,1.583 1.641,1.583 l 2.612,0.083 c 2.161,0 3.978,-0.826 5.451,-2.467 1.47,-1.644 2.209,-3.7 2.209,-6.156 l 0,0 z m 24.686,9.151 c 0,0.259 -0.072,0.39 -0.22,0.39 -0.642,0 -1.362,-0.03 -2.171,-0.086 -0.694,-0.055 -1.283,-0.085 -1.772,-0.085 -0.564,0 -1.266,0.03 -2.1,0.085 -0.88,0.057 -1.63,0.086 -2.252,0.086 -0.148,0 -0.223,-0.131 -0.223,-0.39 0,-0.259 0.055,-0.386 0.167,-0.386 0.823,-0.036 1.417,-0.148 1.777,-0.332 0.363,-0.178 0.542,-0.458 0.542,-0.84 0,-0.24 -0.091,-0.626 -0.277,-1.157 l -1.584,-4.654 h -5.715 l -1.591,4.308 c -0.204,0.576 -0.306,1.021 -0.306,1.336 0,0.818 0.75,1.264 2.249,1.339 0.111,0 0.167,0.126 0.167,0.382 0,0.262 -0.072,0.393 -0.219,0.393 -0.561,0 -1.175,-0.03 -1.852,-0.086 -0.64,-0.055 -1.209,-0.085 -1.707,-0.085 -0.399,0 -0.901,0.03 -1.499,0.085 -0.63,0.057 -1.166,0.086 -1.612,0.086 -0.141,0 -0.207,-0.119 -0.207,-0.352 0,-0.259 0.103,-0.395 0.32,-0.416 0.768,-0.075 1.38,-0.288 1.83,-0.641 0.447,-0.35 0.91,-1.066 1.394,-2.154 l 6.504,-15.972 c 0.058,-0.148 0.184,-0.22 0.39,-0.22 0.224,0 0.36,0.068 0.416,0.207 l 5.742,15.985 c 0.324,0.899 0.762,1.561 1.316,1.99 0.549,0.426 1.286,0.694 2.212,0.805 0.188,0.021 0.279,0.145 0.279,0.374 v 0.005 z m -8.42,-8.26 -2.438,-7.097 -2.639,7.097 h 5.077 z m 30.16,-0.891 c 0,2.856 -0.953,5.159 -2.86,6.908 -1.909,1.755 -4.49,2.633 -7.743,2.633 -0.408,0 -1.233,-0.021 -2.475,-0.059 -1.28,-0.036 -2.13,-0.054 -2.556,-0.054 -1.725,0 -3.404,0.033 -5.031,0.113 -0.15,0 -0.226,-0.131 -0.226,-0.39 0,-0.232 0.075,-0.357 0.226,-0.377 0.765,-0.091 1.354,-0.215 1.764,-0.373 0.405,-0.151 0.695,-0.353 0.856,-0.615 0.162,-0.259 0.24,-0.716 0.24,-1.364 V 286.52 c 0,-0.64 -0.072,-1.091 -0.226,-1.353 -0.154,-0.265 -0.437,-0.477 -0.846,-0.634 -0.406,-0.16 -1.004,-0.284 -1.789,-0.377 -0.15,0 -0.226,-0.131 -0.226,-0.39 0,-0.252 0.075,-0.383 0.226,-0.383 1.083,0.072 2.758,0.112 5.031,0.112 0.426,0 1.275,-0.014 2.556,-0.043 1.241,-0.029 2.066,-0.043 2.475,-0.043 3.17,0 5.73,0.904 7.685,2.717 1.947,1.811 2.919,4.145 2.919,6.999 l 0,0 z m -3.057,0 c 0,-2.52 -0.717,-4.615 -2.158,-6.292 -1.44,-1.67 -3.246,-2.511 -5.417,-2.511 h -0.081 l -2.616,0.057 c -1.091,0.035 -1.641,0.576 -1.641,1.61 v 14.093 c 0,1.058 0.55,1.583 1.641,1.583 l 2.616,0.083 c 2.157,0 3.974,-0.826 5.446,-2.467 1.472,-1.644 2.21,-3.7 2.21,-6.156 l 0,0 z m 34.267,9.123 c 0,0.291 -0.084,0.437 -0.251,0.437 -0.725,0 -1.539,-0.032 -2.449,-0.095 -0.786,-0.062 -1.451,-0.095 -2.004,-0.095 -0.638,0 -1.431,0.033 -2.37,0.095 -0.996,0.063 -1.84,0.095 -2.543,0.095 -0.167,0 -0.248,-0.146 -0.248,-0.437 0,-0.29 0.062,-0.437 0.187,-0.437 0.932,-0.042 1.6,-0.167 2.009,-0.371 0.41,-0.202 0.609,-0.517 0.609,-0.955 0,-0.269 -0.102,-0.704 -0.312,-1.301 l -1.787,-5.259 h -6.459 l -1.794,4.864 c -0.229,0.652 -0.344,1.151 -0.344,1.512 0,0.923 0.847,1.427 2.541,1.509 0.127,0 0.19,0.147 0.19,0.437 0,0.291 -0.087,0.437 -0.254,0.437 -0.624,0 -1.322,-0.032 -2.086,-0.095 -0.722,-0.062 -1.364,-0.095 -1.93,-0.095 -0.45,0 -1.015,0.033 -1.69,0.095 -0.714,0.063 -1.318,0.095 -1.823,0.095 -0.154,0 -0.231,-0.131 -0.231,-0.392 0,-0.295 0.121,-0.452 0.358,-0.471 0.869,-0.083 1.56,-0.324 2.067,-0.72 0.508,-0.4 1.031,-1.208 1.574,-2.438 l 7.347,-18.03 c 0.062,-0.167 0.209,-0.25 0.438,-0.25 0.252,0 0.407,0.079 0.472,0.236 l 6.481,18.044 c 0.368,1.015 0.864,1.765 1.486,2.248 0.622,0.483 1.454,0.784 2.498,0.91 0.21,0.019 0.318,0.164 0.318,0.427 l 0,0 z m -9.507,-9.326 -2.755,-8.014 -2.979,8.014 h 5.734 z m 30.941,-9.211 c 0,0.262 -0.072,0.393 -0.221,0.393 -1.169,0.145 -1.952,0.363 -2.352,0.648 -0.396,0.281 -0.598,0.851 -0.598,1.713 v 8.72 c 0,2.471 -0.596,4.41 -1.79,5.814 -1.196,1.405 -2.886,2.111 -5.062,2.111 -2.479,0 -4.417,-0.674 -5.809,-2.013 -1.387,-1.339 -2.084,-3.16 -2.084,-5.47 v -9.163 c 0,-0.639 -0.073,-1.091 -0.227,-1.353 -0.15,-0.265 -0.436,-0.477 -0.844,-0.634 -0.406,-0.159 -1.001,-0.283 -1.791,-0.374 -0.15,0 -0.223,-0.131 -0.223,-0.393 0,-0.255 0.072,-0.382 0.223,-0.382 0.623,0 1.358,0.025 2.21,0.081 0.815,0.059 1.506,0.086 2.073,0.086 0.562,0 1.259,-0.027 2.085,-0.086 0.859,-0.056 1.599,-0.081 2.221,-0.081 0.148,0 0.223,0.127 0.223,0.382 0,0.262 -0.074,0.393 -0.223,0.393 -0.787,0.091 -1.384,0.215 -1.794,0.367 -0.404,0.156 -0.686,0.363 -0.852,0.627 -0.161,0.262 -0.244,0.717 -0.244,1.367 v 8.775 c 0,2.28 0.429,3.951 1.293,5.017 0.861,1.066 2.266,1.598 4.21,1.598 3.659,0 5.489,-2.312 5.489,-6.947 v -8.442 c 0,-0.862 -0.202,-1.437 -0.614,-1.729 -0.413,-0.292 -1.188,-0.505 -2.332,-0.632 -0.146,0 -0.222,-0.131 -0.222,-0.393 0,-0.255 0.076,-0.382 0.222,-0.382 0.43,0 0.989,0.025 1.685,0.081 0.709,0.059 1.289,0.086 1.729,0.086 0.446,0 1.003,-0.027 1.67,-0.086 0.685,-0.056 1.261,-0.081 1.722,-0.081 0.155,0 0.227,0.127 0.227,0.382 l 0,0 z m 20.083,4.189 c 0,0.177 -0.167,0.262 -0.502,0.262 -0.146,0 -0.242,-0.065 -0.276,-0.189 -0.401,-1.31 -0.971,-2.239 -1.71,-2.778 -0.743,-0.541 -1.841,-0.81 -3.298,-0.81 h -1.302 c -0.455,0 -0.766,0.072 -0.933,0.224 -0.167,0.146 -0.252,0.424 -0.252,0.831 v 14.108 c 0,0.644 0.085,1.091 0.245,1.356 0.164,0.262 0.452,0.471 0.863,0.623 0.41,0.157 1.003,0.281 1.769,0.373 0.147,0.021 0.223,0.145 0.223,0.377 0,0.259 -0.075,0.39 -0.223,0.39 -0.619,0 -1.361,-0.03 -2.224,-0.086 -0.814,-0.055 -1.495,-0.085 -2.042,-0.085 -0.569,0 -1.263,0.03 -2.088,0.085 -0.864,0.057 -1.604,0.086 -2.227,0.086 -0.147,0 -0.223,-0.131 -0.223,-0.39 0,-0.232 0.075,-0.357 0.223,-0.377 1.123,-0.131 1.885,-0.34 2.288,-0.629 0.402,-0.285 0.603,-0.856 0.603,-1.722 v -14.108 c 0,-0.406 -0.083,-0.684 -0.249,-0.831 -0.167,-0.152 -0.481,-0.224 -0.947,-0.224 h -1.081 c -1.307,0 -2.496,0.328 -3.559,0.989 -1.069,0.665 -1.762,1.525 -2.085,2.583 -0.047,0.138 -0.148,0.205 -0.306,0.205 -0.316,0 -0.476,-0.096 -0.476,-0.3 0.522,-1.401 1.013,-2.986 1.474,-4.756 1.261,0.259 4.144,0.39 8.652,0.39 4.622,0 7.565,-0.131 8.825,-0.39 0.133,1.204 0.412,2.801 0.838,4.793 l 0,0 z m 21.732,5.2 c 0,2.937 -0.942,5.335 -2.835,7.205 -1.889,1.867 -4.36,2.806 -7.408,2.806 -3.047,0 -5.513,-0.939 -7.398,-2.806 -1.885,-1.87 -2.832,-4.268 -2.832,-7.205 0,-2.947 0.951,-5.385 2.85,-7.307 1.902,-1.925 4.359,-2.881 7.381,-2.881 3.031,0 5.497,0.956 7.396,2.881 1.9,1.921 2.846,4.36 2.846,7.307 l 0,0 z m -3.057,0 c 0,-2.733 -0.657,-4.968 -1.976,-6.7 -1.32,-1.732 -3.059,-2.597 -5.21,-2.597 -2.156,0 -3.892,0.865 -5.2,2.597 -1.313,1.732 -1.973,3.967 -1.973,6.7 0,2.714 0.655,4.91 1.955,6.593 1.304,1.682 3.042,2.527 5.218,2.527 2.171,0 3.912,-0.845 5.222,-2.527 1.313,-1.683 1.964,-3.879 1.964,-6.593 z m -2.638,-15.043 c 0,0.243 -0.086,0.416 -0.251,0.518 l -4.865,3.015 c -0.084,0.055 -0.168,0.083 -0.252,0.083 -0.063,0 -0.158,-0.064 -0.283,-0.193 -0.123,-0.131 -0.188,-0.251 -0.188,-0.362 0,-0.084 0.051,-0.171 0.153,-0.264 l 4.158,-3.934 c 0.092,-0.091 0.212,-0.138 0.359,-0.138 0.313,0 0.59,0.143 0.823,0.434 0.229,0.291 0.346,0.576 0.346,0.841 l 0,0 z m 30.801,5.661 c 0,0.229 -0.07,0.353 -0.222,0.373 -1.158,0.131 -1.952,0.344 -2.385,0.642 -0.429,0.295 -0.653,0.864 -0.673,1.711 l -0.306,16.385 c 0,0.187 -0.109,0.281 -0.336,0.281 -0.108,0 -0.257,-0.079 -0.443,-0.226 l -14.33,-16.194 -0.193,12.857 c -0.01,0.076 -0.017,0.145 -0.017,0.211 0,0.703 0.222,1.197 0.668,1.491 0.444,0.292 1.246,0.509 2.405,0.649 0.147,0.021 0.223,0.145 0.223,0.377 0,0.259 -0.075,0.39 -0.223,0.39 -0.483,0 -1.145,-0.03 -1.986,-0.086 -0.79,-0.055 -1.398,-0.085 -1.82,-0.085 -0.465,0 -1.091,0.03 -1.88,0.085 -0.76,0.057 -1.348,0.086 -1.764,0.086 -0.15,0 -0.227,-0.131 -0.227,-0.39 0,-0.232 0.087,-0.357 0.252,-0.377 1.149,-0.14 1.938,-0.357 2.363,-0.649 0.427,-0.294 0.655,-0.857 0.682,-1.702 l 0.487,-13.083 v -0.126 c 0,-0.75 -0.215,-1.273 -0.655,-1.57 -0.434,-0.297 -1.247,-0.52 -2.431,-0.665 -0.131,0 -0.193,-0.131 -0.193,-0.393 0,-0.255 0.073,-0.382 0.219,-0.382 0.328,0 0.779,0.025 1.365,0.081 0.518,0.059 0.906,0.086 1.168,0.086 0.321,0 0.714,-0.027 1.167,-0.086 0.46,-0.056 0.863,-0.081 1.194,-0.081 l 13.387,14.971 v -11.855 c 0,-0.789 -0.225,-1.342 -0.673,-1.663 -0.447,-0.317 -1.283,-0.55 -2.497,-0.691 -0.147,-0.02 -0.221,-0.144 -0.221,-0.373 0,-0.262 0.073,-0.389 0.221,-0.389 0.501,0 1.169,0.025 2.003,0.081 0.778,0.059 1.382,0.086 1.808,0.086 0.463,0 1.086,-0.027 1.875,-0.086 0.76,-0.056 1.35,-0.081 1.766,-0.081 0.152,0.001 0.222,0.128 0.222,0.39 l 0,0 z M 462.197,173.108 c 0,1.259 -0.36,1.891 -1.08,1.891 -5.677,0.721 -9.48,1.779 -11.417,3.154 -1.936,1.372 -2.904,4.143 -2.904,8.333 v 42.381 c 0,12.024 -2.907,21.438 -8.715,28.261 -5.811,6.825 -14.009,10.247 -24.592,10.247 -12.049,0 -21.462,-3.266 -28.219,-9.773 -6.755,-6.509 -10.131,-15.36 -10.131,-26.574 v -44.542 c 0,-3.109 -0.36,-5.293 -1.103,-6.578 -0.743,-1.283 -2.118,-2.319 -4.098,-3.085 -1.985,-0.764 -4.887,-1.374 -8.718,-1.824 -0.72,0 -1.081,-0.631 -1.081,-1.891 0,-1.24 0.36,-1.87 1.081,-1.87 3.018,0 6.601,0.135 10.745,0.405 3.96,0.27 7.315,0.406 10.062,0.406 2.75,0 6.127,-0.136 10.135,-0.406 4.191,-0.27 7.791,-0.405 10.811,-0.405 0.718,0 1.078,0.629 1.078,1.87 0,1.259 -0.36,1.891 -1.078,1.891 -3.828,0.45 -6.735,1.06 -8.715,1.802 -1.983,0.742 -3.355,1.755 -4.145,3.038 -0.789,1.285 -1.194,3.493 -1.194,6.646 v 42.652 c 0,11.079 2.094,19.208 6.285,24.388 4.186,5.178 11.012,7.767 20.469,7.767 17.792,0 26.688,-11.258 26.688,-33.779 v -41.028 c 0,-4.189 -0.993,-6.983 -2.997,-8.401 -2.003,-1.42 -5.787,-2.456 -11.326,-3.085 -0.724,0 -1.084,-0.631 -1.084,-1.891 0,-1.24 0.36,-1.87 1.084,-1.87 2.072,0 4.797,0.135 8.174,0.405 3.445,0.27 6.26,0.406 8.421,0.406 2.164,0 4.868,-0.136 8.107,-0.406 3.334,-0.27 6.125,-0.405 8.378,-0.405 0.719,0.001 1.079,0.63 1.079,1.87 l 0,0 z m 100.55,90.213 c 0,1.261 -0.36,1.891 -1.08,1.891 -3.106,0 -6.619,-0.135 -10.538,-0.403 -3.377,-0.271 -6.24,-0.405 -8.627,-0.405 -2.745,0 -6.147,0.134 -10.2,0.405 -4.277,0.269 -7.93,0.403 -10.943,0.403 -0.72,0 -1.083,-0.629 -1.083,-1.891 0,-1.239 0.271,-1.868 0.812,-1.868 4.007,-0.181 6.892,-0.722 8.649,-1.601 1.753,-0.875 2.631,-2.228 2.631,-4.098 0,-1.172 -0.448,-3.041 -1.348,-5.608 l -7.703,-22.632 h -27.791 l -7.721,20.943 c -0.993,2.794 -1.486,4.955 -1.486,6.485 0,3.987 3.646,6.15 10.942,6.51 0.54,0 0.809,0.629 0.809,1.868 0,1.261 -0.356,1.891 -1.077,1.891 -2.703,0 -5.699,-0.135 -8.988,-0.403 -3.106,-0.271 -5.877,-0.405 -8.308,-0.405 -1.938,0 -4.368,0.134 -7.275,0.405 -3.06,0.269 -5.673,0.403 -7.837,0.403 -0.674,0 -1.012,-0.562 -1.012,-1.689 0,-1.259 0.518,-1.935 1.552,-2.026 3.739,-0.361 6.711,-1.395 8.898,-3.105 2.184,-1.713 4.436,-5.203 6.776,-10.473 l 31.615,-77.625 c 0.272,-0.72 0.903,-1.081 1.894,-1.081 1.083,0 1.757,0.337 2.025,1.013 l 27.904,77.693 c 1.575,4.369 3.713,7.588 6.397,9.659 2.678,2.073 6.258,3.381 10.761,3.919 0.903,0.093 1.352,0.699 1.352,1.825 l 0,0 z m -40.918,-40.13 -11.866,-34.5 -12.813,34.5 h 24.679 l 0,0 z m 136.718,17.025 c -1.622,7.205 -3.198,14.862 -4.728,22.968 -2.571,0 -7.231,0.61 -13.984,1.827 -8.65,1.575 -15.043,2.364 -19.188,2.364 -10.269,0 -19.277,-2.028 -27.022,-6.083 -7.75,-4.051 -13.783,-9.861 -18.107,-17.407 -4.323,-7.543 -6.484,-15.92 -6.484,-25.152 0,-9.099 2.297,-17.5 6.867,-25.179 4.57,-7.68 10.855,-13.646 18.871,-17.925 8.017,-4.278 17.048,-6.419 27.092,-6.419 4.235,0 9.908,0.451 17.025,1.354 5.54,0.72 9.569,1.08 12.093,1.08 0.586,6.305 1.62,13.961 3.107,22.969 0,0.721 -0.72,1.082 -2.16,1.082 -0.901,0 -1.441,-0.361 -1.624,-1.082 -1.621,-6.125 -5.111,-11.169 -10.469,-15.134 -5.363,-3.963 -11.53,-5.945 -18.514,-5.945 -10.583,0 -19.455,4.37 -26.641,13.106 -7.185,8.739 -10.786,19.436 -10.786,32.093 0,12.294 3.559,22.744 10.676,31.368 7.114,8.625 15.808,12.949 26.076,12.949 16.078,0 27.473,-7.61 34.184,-22.834 0.314,-0.72 0.923,-1.083 1.827,-1.083 1.26,10e-4 1.889,0.361 1.889,1.083 l 0,0 z m 116.742,23.105 c 0,1.261 -0.358,1.891 -1.083,1.891 -3.061,0 -6.685,-0.135 -10.875,-0.403 -3.964,-0.272 -7.319,-0.405 -10.066,-0.405 -2.747,0 -5.921,0.132 -9.526,0.405 -3.784,0.269 -7.183,0.403 -10.2,0.403 -0.724,0 -1.085,-0.629 -1.085,-1.891 0,-1.125 0.384,-1.734 1.154,-1.825 3.78,-0.45 6.596,-1.081 8.442,-1.869 1.845,-0.787 3.042,-1.823 3.559,-3.109 0.517,-1.282 0.765,-3.422 0.765,-6.439 v -30.132 h -51.55 v 30.132 c 0,3.018 0.272,5.158 0.79,6.439 0.521,1.286 1.689,2.322 3.537,3.109 1.845,0.788 4.683,1.418 8.513,1.869 0.72,0.091 1.08,0.699 1.08,1.825 0,1.261 -0.36,1.891 -1.08,1.891 -3.019,0 -6.42,-0.135 -10.204,-0.403 -3.601,-0.272 -6.776,-0.405 -9.522,-0.405 -2.75,0 -6.129,0.132 -10.136,0.405 -4.186,0.269 -7.791,0.403 -10.809,0.403 -0.72,0 -1.08,-0.629 -1.08,-1.891 0,-1.125 0.36,-1.734 1.08,-1.825 5.449,-0.629 9.166,-1.645 11.124,-3.041 1.959,-1.396 2.93,-4.187 2.93,-8.376 v -63.594 c 0,-3.153 -0.385,-5.361 -1.172,-6.645 -0.789,-1.285 -2.183,-2.296 -4.169,-3.04 -1.98,-0.742 -4.888,-1.352 -8.713,-1.802 -0.72,0 -1.08,-0.631 -1.08,-1.891 0,-1.24 0.36,-1.87 1.08,-1.87 3.018,0 6.623,0.135 10.809,0.405 4.007,0.27 7.386,0.406 10.136,0.406 2.746,0 5.922,-0.136 9.522,-0.406 3.784,-0.27 7.186,-0.405 10.204,-0.405 0.72,0 1.08,0.629 1.08,1.87 0,1.259 -0.36,1.891 -1.08,1.891 -3.513,0.406 -6.17,0.945 -7.975,1.62 -1.8,0.677 -3.061,1.601 -3.78,2.749 -0.725,1.149 -1.085,3.512 -1.085,7.118 v 29.138 h 51.55 v -29.138 c 0,-3.019 -0.244,-5.182 -0.765,-6.487 -0.517,-1.307 -1.691,-2.342 -3.514,-3.13 -1.824,-0.787 -4.685,-1.419 -8.557,-1.869 -0.724,0 -1.085,-0.631 -1.085,-1.891 0,-1.24 0.361,-1.87 1.085,-1.87 3.018,0 6.42,0.135 10.2,0.405 3.605,0.27 6.779,0.406 9.526,0.406 2.747,0 6.103,-0.136 10.066,-0.406 4.19,-0.27 7.814,-0.405 10.879,-0.405 0.721,0 1.079,0.629 1.079,1.87 0,1.259 -0.358,1.891 -1.079,1.891 -3.831,0.45 -6.734,1.06 -8.718,1.802 -1.98,0.744 -3.355,1.755 -4.142,3.04 -0.79,1.283 -1.194,3.491 -1.194,6.645 v 63.594 c 0,4.189 0.987,6.981 2.948,8.376 1.962,1.396 5.655,2.411 11.105,3.041 0.723,0.09 1.081,0.698 1.081,1.824 l 0,0 z M 215.142,367.039 c -18.856,18.809 -45.35,30.516 -74.691,30.516 -26.192,0 -50.115,-9.333 -68.366,-24.72 l 1.277,-0.639 1.938,-1.696 0,0 0.727,-0.483 0.967,-0.485 0,0 0.729,-0.483 0.969,-0.243 h 2.663 l 3.874,-0.241 0.727,-0.484 0,0 0.487,-0.728 0.484,-0.968 0.968,-0.971 1.452,-1.453 0,0 2.423,-1.452 2.422,-1.455 2.907,-1.452 0,0 0.724,-0.728 0.972,-0.727 0,0 2.422,-1.696 0,0 1.45,-0.241 1.215,-0.243 0,0 h 1.935 l 1.211,0.243 0.242,0.241 0.242,0.484 0.485,0.485 0.727,0.242 0,0 1.454,0.242 0.727,0.242 0.727,0.243 0,0 1.695,1.694 0,0 0.727,0.485 0.727,0.483 0.484,0.484 0,0 2.18,0.971 2.907,1.452 2.661,1.696 0.969,0.728 0.727,0.726 0,0 1.909,1.061 -0.455,0.15 -1.696,0.728 0,0 -0.968,0.727 -0.97,0.726 0,0 -1.211,0.484 -0.965,0.728 0,0 -0.973,0.484 -0.968,0.484 0,0 -2.178,0.485 -2.18,0.485 -1.938,0.968 -1.696,1.208 0,0 -4.845,2.665 -11.14,5.569 0.023,0.015 11.845,-4.37 5.087,-2.664 0,0 1.938,-1.211 1.696,-0.728 1.695,-0.727 1.935,-0.242 0,0 h 0.727 l 0.727,-0.483 1.454,-0.728 0,0 0.727,-0.728 0.969,-0.484 0,0 1.21,-0.484 1.212,-0.969 0,0 1.211,-0.728 2.665,-0.24 h 1.45 l 0,0 1.215,0.24 0.965,0.485 1.211,0.968 0.485,0.243 0.727,0.243 0.969,-0.243 1.454,-0.728 0,0 1.453,-0.726 1.696,-0.727 3.392,-0.484 0,0 3.149,-0.243 h 1.454 l 3.146,0.484 3.149,1.454 1.454,0.969 0,0 0.969,-0.483 0.728,-0.485 0.968,-0.242 0,0 h 2.665 0.969 l 0,0 1.938,0.968 0.965,0.486 0.731,0.484 5.568,4.604 0,0 0.727,0.24 2.423,0.485 0,0 1.696,0.242 6.056,2.665 4.092,2.046 -5.064,-3.745 -2.419,-1.45 -0.727,-0.728 -0.726,-0.243 -2.665,-0.24 0,0 -2.422,-0.485 0,0 -2.665,-2.18 0,0 -2.665,-2.182 0,0 -0.272,-0.201 0.032,-0.039 2.904,-1.696 1.454,-0.969 1.211,-1.695 0,0 0.727,-1.212 0.726,-0.728 0,0 1.212,-1.211 0,0 2.423,-1.696 0,0 1.211,-0.726 0.969,-0.728 0,0 h 0.727 0.966 l 0,0 h 0.969 l 0,0 0.972,-0.242 0.966,-0.241 0,0 0.727,-0.484 0.727,-0.243 1.696,0.488 0,0 0.727,0.723 0.484,0.728 0,0 0.727,0.241 0.968,-0.241 0,0 0.97,-0.728 0.484,-0.483 h 0.243 l 0,0 1.695,0.483 0,0 0.969,0.728 0,0 h 0.727 l 0.724,-0.242 0,0 1.214,-0.969 1.45,-0.484 0,0 h 2.907 l 0,0 2.423,0.484 0,0 0.969,0.483 0.727,0.728 0,0 0.968,0.726 0,0 1.696,1.454 1.696,1.453 0,0 1.453,0.728 0.965,0.727 0,0 1.542,1.142 0,0 z M 82.806,328.357 V 135.324 l 26.967,36.799 c 12.896,-2.888 26.202,-3.918 39.385,-3.108 l -31.355,14.068 8.75,11.944 c 3.66,-0.449 7.372,-0.726 11.137,-0.814 l -7.831,5.325 6.538,8.918 16.352,-13.613 c -5,-0.544 -10.034,-0.755 -15.059,-0.631 l 6.802,-4.629 25.904,-17.624 c 2.557,0.559 5.083,1.188 7.582,1.881 l 0,0 c 4.442,1.237 8.787,2.686 13.026,4.338 1.584,0.615 3.153,1.262 4.707,1.935 l 0.007,0.005 0,0 -13.952,21.901 c -2.374,-0.942 -4.792,-1.806 -7.249,-2.587 -6.969,-2.218 -14.252,-3.772 -21.769,-4.589 l 25.229,-21.002 46.272,-38.518 -33.246,42.855 -16.486,21.253 -23.007,29.654 6.963,9.5 23.292,-36.567 c 4.495,1.782 8.832,3.848 12.999,6.17 l 9.68,-23.921 c 6.995,3.639 13.621,7.854 19.805,12.583 v -61.528 l -53.854,36.637 c -6.878,-1.501 -13.956,-2.497 -21.19,-2.944 l 75.044,-33.692 H 82.809 59.313 v 59.542 C 26.803,218.477 5.788,255.924 5.788,298.08 c 0,71.418 60.303,129.334 134.662,129.334 74.36,0 134.664,-57.916 134.664,-129.334 0,-40.993 -19.871,-77.53 -50.863,-101.229 v 35.454 c -8.219,-9.631 -18.207,-17.822 -29.485,-24.114 l -20.836,51.489 50.321,68.676 H 82.809 82.806 z M 59.313,229.308 v 99.05 23.493 h 164.938 v -23.493 -96.049 c 15.286,17.915 24.464,40.818 24.464,65.774 0,57.373 -48.485,103.905 -108.265,103.905 -59.78,0 -108.263,-46.532 -108.263,-103.905 0,-26.375 10.251,-50.449 27.126,-68.775 l 0,0 z m 136.406,-49.189 28.532,-44.795 -19.805,48.945 c -2.851,-1.48 -5.758,-2.865 -8.727,-4.15 l 0,0 z m -106.856,31.256 20.585,50.621 6.299,-12.112 11.866,40.446 8.475,-11.139 9.69,32.939 5.568,-9.929 13.809,16.712 -11.625,-40.205 -4.119,12.833 -11.871,-39.719 -6.295,10.414 -8.479,-38.752 -10.414,16.47 -10.655,-38.509 -12.834,9.93 z"
       id="path4"
       inkscape:connector-curvature="0"
       style="fill:#ffffff" /></g></svg>